<svg width="53" height="50" viewBox="0 0 53 50" fill="none" xmlns="http://www.w3.org/2000/svg">
<path d="M44.505 6.3446C44.2467 6.08622 43.7291 5.56868 43.4709 5.31029C47.1057 2.70985 42.9609 1.6821 42.0569 0C40.4994 1.55745 38.6813 2.85786 36.3471 3.64054C35.9575 4.03014 35.1779 4.80973 34.7891 5.19857C25.6507 14.337 17.5588 23.4364 8.15947 31.8677C14.403 26.6275 20.0282 21.5007 25.5258 15.499C25.6499 15.7094 25.7375 16.0434 26.0831 15.9735C21.532 23.111 14.0074 26.497 8.93926 33.1174C8.6828 32.8609 8.17298 32.3511 7.91209 32.0902C5.73926 34.0317 3.4964 35.9376 1.15396 37.7986C0.280391 38.672 0.0173671 39.9095 0 41.1476C8.00124 36.728 14.6143 29.7542 21.5547 23.7673C18.8279 26.4942 15.9695 29.8694 12.7247 32.0796C8.31134 35.4587 5.06311 39.2241 0.780565 41.9552C0.540706 42.0941 0.294275 42.2303 0.0488192 42.367C0.0959034 42.9115 0.169046 43.4308 0.232919 43.8922C0.748144 45.9633 2.1682 48.1645 5.02046 47.8984C5.41006 47.5088 6.18888 46.73 6.18888 46.73C6.85327 47.087 7.31523 47.7261 7.75095 48.3461C10.548 46.1034 13.2841 43.7967 16.0395 41.5131C19.3354 38.4995 22.7203 35.6652 26.4579 33.3468C22.8475 35.9288 19.4273 38.705 16.0395 41.5131C13.4013 43.9258 10.8192 46.4513 8.16603 48.9217C8.69438 49.6214 9.2673 50.1498 10.1986 49.9616C11.7537 49.9577 13.7058 46.4544 15.5235 45.1538C20.8433 41.9032 25.2601 36.9685 30.3219 33.4588C33.9551 30.8599 36.8137 27.4841 39.6727 24.1079C43.4408 19.3057 49.1508 15.6642 51.6227 11.1237C53.706 6.97175 48.9159 4.52009 44.505 6.3446Z" fill="#86FF3C"/>
<path d="M14.9668 12H17.477V23.1176H15.3904L9.91498 16.3676V23.1176H7.40477V12H9.50707L14.9668 18.75V12Z" fill="black"/>
<path d="M22.6012 21.0529H28.5787V23.1176H20.0753V12H28.3747V14.0647H22.6012V16.4788H27.7001V18.48H22.6012V21.0529Z" fill="black"/>
<path d="M44.6147 12H47.0465L43.4537 23.1176H40.7239L38.3078 15.5894L35.8133 23.1176H33.0991L29.4907 12H32.1264L34.6052 19.8141L37.1939 12H39.5472L42.0574 19.8776L44.6147 12Z" fill="black"/>
<path d="M16.124 27.8824H18.5558L14.963 39H12.2332L9.81711 31.4718L7.32259 39H4.60843L1 27.8824H3.63572L6.11455 35.6965L8.70321 27.8824H11.0565L13.5667 35.76L16.124 27.8824Z" fill="black"/>
<path d="M27.8122 39L26.8395 36.6176H21.7406L20.7679 39H18.1636L23.0585 27.8824H25.5687L30.4793 39H27.8122ZM22.5564 34.6641H26.0393L24.2979 30.4076L22.5564 34.6641Z" fill="black"/>
<path d="M39.0538 27.8824H41.5797L36.826 39H34.3158L29.5778 27.8824H32.3233L35.665 35.8235L39.0538 27.8824Z" fill="black"/>
<path d="M45.0226 36.9353H51V39H42.4967V27.8824H50.796V29.9471H45.0226V32.3612H50.1214V34.3624H45.0226V36.9353Z" fill="black"/>
</svg>
