<svg width="47" height="42" viewBox="0 0 47 42" fill="none" xmlns="http://www.w3.org/2000/svg">
<path d="M5.7 9C7 3.7 11.8 0 17.3 0H33.8C41.6 0 47.3 7.2 45.5 14.8L41.2 32.8C39.9 38.2 35.1 42 29.5 42H12.5C4.6 42 -1.1 34.6 0.900004 27L5.7 9Z" fill="#FC6814"/>
<path d="M44 14C44.5 12 45.5 8.2 43.5 5C44.3 5.7 46 8.2 46 13C44.5 20 41.5 32.5 40.5 35C39 38 35.6 42 30 42H14.5C11 42 10.5 42 8.5 41.5C7 41 3.7 38.9 2.5 36.5C3.3 37.5 5.6 40 8 40H30C32.5 39.8 37.9 38.1 39.5 32.5L44 14Z" fill="#E25E13"/>
<path fill-rule="evenodd" clip-rule="evenodd" d="M16 20.3C16 20.3 15.9 20.3 15.8 20.1C15.8 20.1 15.7 19.9 15.7 19.8C15.7 19.8 15.7 19.6 15.7 19.5L15.9 18.8L13.8 17.4C13.8 17.4 13.7 17.4 13.6 17.2C13.6 17.2 13.5 17 13.5 16.9C13.5 16.8 13.5 16.7 13.5 16.6L15.2 10.3C15.2 10.2 15.3 10 15.4 9.90002C15.5 9.90002 15.7 9.80002 15.8 9.80002H18.3L18.9 7.40002C18.9 7.30002 19 7.10002 19.1 7.00002C19.2 7.00002 19.4 6.90002 19.5 6.90002H27.2C27.3 6.90002 27.4 6.90002 27.5 6.90002L29.6 8.30002C29.6 8.30002 29.7 8.30002 29.8 8.50002C29.8 8.50002 29.9 8.70002 29.9 8.80002C29.9 8.90002 29.9 9.00002 29.9 9.10002L29.7 9.80002L31.8 11.2C31.8 11.2 31.9 11.2 32 11.4C32 11.4 32.1 11.6 32.1 11.7C32.1 11.7 32.1 11.9 32.1 12L31.3 15.1C31.3 15.2 31.2 15.4 31.1 15.5C31 15.5 30.8 15.6 30.7 15.6H27.7C27.6 15.6 27.5 15.6 27.4 15.6L25.3 14.2C25.3 14.2 25.2 14.2 25.1 14C25.1 14 25 13.8 25 13.7C25 13.6 25 13.5 25 13.4L25.2 12.5H21.4L20.5 16H24.8C24.9 16 25 16 25.1 16L27.2 17.4C27.2 17.4 27.3 17.4 27.4 17.6C27.4 17.6 27.5 17.8 27.5 17.9C27.5 17.9 27.5 18.1 27.5 18.2L27.3 18.9L29.4 20.3C29.4 20.3 29.5 20.3 29.6 20.5C29.6 20.5 29.7 20.7 29.7 20.8C29.7 20.9 29.7 21 29.7 21.1L28 27.4C28 27.6 27.9 27.7 27.8 27.8C27.7 27.8 27.5 27.9 27.4 27.9H24.9L24.3 30.3C24.3 30.5 24.2 30.6 24.1 30.7C24 30.7 23.8 30.8 23.7 30.8H16C15.9 30.8 15.8 30.8 15.7 30.8L13.6 29.4C13.6 29.4 13.5 29.4 13.4 29.2C13.4 29.2 13.3 29 13.3 28.9C13.3 28.8 13.3 28.7 13.3 28.6L13.5 27.9L11.4 26.5C11.4 26.5 11.3 26.5 11.2 26.3C11.2 26.3 11.1 26.1 11.1 26C11.1 25.9 11.1 25.8 11.1 25.7L11.9 22.6C11.9 22.5 12 22.3 12.1 22.2C12.2 22.2 12.4 22.1 12.5 22.1H15.5C15.6 22.1 15.7 22.1 15.8 22.1L17.9 23.5C17.9 23.5 18 23.5 18.1 23.7C18.1 23.7 18.2 23.9 18.2 24C18.2 24 18.2 24.2 18.2 24.3L18 25.2H21.8L22.7 21.7H18.4C18.3 21.7 18.2 21.7 18.1 21.7L16 20.3Z" fill="#001F54"/>
<path fill-rule="evenodd" clip-rule="evenodd" d="M15.8 10.6H18.8L19.6 7.69995H27.3L26.5 10.6H29.5L28.7 13.7H25.7L26.5 10.6H18.8L17.1 16.9H24.8L24 19.8H16.3L17.1 16.9H14.1L15.8 10.6ZM12.5 22.9H15.5L14.7 26H22.4L24.1 19.7H27.1L25.4 26H22.4L21.6 28.9H13.9L14.7 26H11.7L12.5 22.9Z" fill="#FEE9DD"/>
</svg>
