<svg width="580" height="387" viewBox="0 0 580 387" fill="none" xmlns="http://www.w3.org/2000/svg">
<rect width="580" height="387" fill="#FEE9DD"/>
<path d="M390.347 125.252C388.687 122.584 386.852 119.994 384.82 117.494C368.465 97.3809 347.082 88.8728 322.652 83.1705C297.42 77.2806 267.878 75.4276 243.655 86.0757C237.954 88.5822 232.548 91.9393 228.246 96.4873C212.041 113.617 206.485 142.323 188.429 165.009C170.372 187.695 161.575 215.937 177.78 242.79C184.638 254.154 193.381 263.53 203.728 271.755C216.467 281.882 227.455 295.542 242.176 303.449C257.649 311.759 278.256 314.654 295.379 310.848C314.914 306.507 326.373 289.244 341.286 277.471C353.042 268.189 367.105 262.114 378.626 252.541C396.276 237.875 409.657 214.301 407.42 190.935C405.25 168.269 402.44 144.69 390.347 125.252Z" fill="#FC6814"/>
<path opacity="0.7" d="M390.347 125.252C388.687 122.584 386.852 119.994 384.82 117.494C368.465 97.3809 347.082 88.8728 322.652 83.1705C297.42 77.2806 267.878 75.4276 243.655 86.0757C237.954 88.5822 232.548 91.9393 228.246 96.4873C212.041 113.617 206.485 142.323 188.429 165.009C170.372 187.695 161.575 215.937 177.78 242.79C184.638 254.154 193.381 263.53 203.728 271.755C216.467 281.882 227.455 295.542 242.176 303.449C257.649 311.759 278.256 314.654 295.379 310.848C314.914 306.507 326.373 289.244 341.286 277.471C353.042 268.189 367.105 262.114 378.626 252.541C396.276 237.875 409.657 214.301 407.42 190.935C405.25 168.269 402.44 144.69 390.347 125.252Z" fill="white"/>
<path opacity="0.2" d="M393.363 83.5874C392.337 83.5874 391.476 84.2541 391.163 85.1745H277.182C276.869 84.2541 276.008 83.5874 274.982 83.5874C273.694 83.5874 272.649 84.6316 272.649 85.92C272.649 87.2084 273.694 88.2526 274.982 88.2526C276.008 88.2526 276.869 87.5859 277.182 86.666H391.163C391.476 87.5864 392.337 88.2526 393.363 88.2526C394.651 88.2526 395.696 87.2084 395.696 85.92C395.696 84.6321 394.651 83.5874 393.363 83.5874Z" fill="#323F4B"/>
<g opacity="0.2">
<path d="M304.14 87.0864C305.765 126.603 307.185 166.497 308.886 205.869L308.717 213.586C308.717 213.586 301.412 213.586 297.567 213.971C293.723 214.355 287.763 214.355 283.533 214.355C279.304 214.355 276.997 212.817 276.997 212.817L277.272 205.858C278.125 166.505 279.046 126.607 279.647 87.0864" stroke="#323F4B" stroke-miterlimit="10" stroke-linejoin="round"/>
<path d="M285.927 199.337L285.907 203.99" stroke="#323F4B" stroke-miterlimit="10" stroke-linejoin="round"/>
<path d="M286.325 108.681L285.945 195.206" stroke="#323F4B" stroke-miterlimit="10" stroke-linejoin="round"/>
<path d="M286.424 86.2112L286.337 106.1" stroke="#323F4B" stroke-miterlimit="10" stroke-linejoin="round"/>
<path d="M292.977 131.663L292.106 189.267" stroke="#323F4B" stroke-miterlimit="10" stroke-linejoin="round"/>
<path d="M293.656 86.7278L293.031 128.06" stroke="#323F4B" stroke-miterlimit="10" stroke-linejoin="round"/>
<path d="M299.096 147.682L299.338 201.149" stroke="#323F4B" stroke-miterlimit="10" stroke-linejoin="round"/>
<path d="M298.924 109.716L299.076 143.293" stroke="#323F4B" stroke-miterlimit="10" stroke-linejoin="round"/>
<path d="M298.821 87.2444L298.905 105.584" stroke="#323F4B" stroke-miterlimit="10" stroke-linejoin="round"/>
</g>
<g opacity="0.2">
<path d="M363.109 87.0864C361.547 128.925 359.558 171.187 358.061 212.805C358.061 212.805 363.036 213.558 366.238 213.558C369.44 213.558 370.08 213.558 373.602 213.558C377.124 213.558 379.045 213.558 382.567 213.558C386.089 213.558 390.127 212.777 390.127 212.777C389.39 171.187 388.893 128.925 387.603 87.0864" stroke="#323F4B" stroke-miterlimit="10" stroke-linejoin="round"/>
<path d="M381.321 199.337L381.342 203.99" stroke="#323F4B" stroke-miterlimit="10" stroke-linejoin="round"/>
<path d="M380.924 108.681L381.303 195.206" stroke="#323F4B" stroke-miterlimit="10" stroke-linejoin="round"/>
<path d="M380.825 86.2112L380.913 106.1" stroke="#323F4B" stroke-miterlimit="10" stroke-linejoin="round"/>
<path d="M374.272 131.663L375.143 189.267" stroke="#323F4B" stroke-miterlimit="10" stroke-linejoin="round"/>
<path d="M373.593 86.7278L374.217 128.06" stroke="#323F4B" stroke-miterlimit="10" stroke-linejoin="round"/>
<path d="M368.153 147.682L367.91 201.149" stroke="#323F4B" stroke-miterlimit="10" stroke-linejoin="round"/>
<path d="M368.326 109.716L368.174 143.293" stroke="#323F4B" stroke-miterlimit="10" stroke-linejoin="round"/>
<path d="M368.427 87.2444L368.344 105.584" stroke="#323F4B" stroke-miterlimit="10" stroke-linejoin="round"/>
</g>
<g opacity="0.2">
<path d="M304.865 98.3159H316.337V111.699H305.63" stroke="#323F4B" stroke-miterlimit="10" stroke-linejoin="round"/>
<path d="M330.327 98.3491H318.337V111.773H330.327V98.3491Z" stroke="#323F4B" stroke-miterlimit="10" stroke-linejoin="round"/>
</g>
<g opacity="0.2">
<path d="M362.538 98.3159H351.066V111.699H361.773" stroke="#323F4B" stroke-miterlimit="10" stroke-linejoin="round"/>
<path d="M337.076 111.773H349.066V98.3487H337.076V111.773Z" stroke="#323F4B" stroke-miterlimit="10" stroke-linejoin="round"/>
</g>
<path opacity="0.2" d="M306.758 159.129H330.633V119.007H305.709" stroke="#323F4B" stroke-miterlimit="10" stroke-linejoin="round"/>
<path opacity="0.2" d="M361.33 118.667H336.931V159.129H359.494" stroke="#323F4B" stroke-miterlimit="10" stroke-linejoin="round"/>
<path opacity="0.2" d="M307.546 168.65H330.633V208.982H309.295" stroke="#323F4B" stroke-miterlimit="10" stroke-linejoin="round"/>
<path opacity="0.2" d="M359.756 168.31H336.931V209.357H357.741" stroke="#323F4B" stroke-miterlimit="10" stroke-linejoin="round"/>
<path opacity="0.2" d="M309.189 211.919H358.061" stroke="#323F4B" stroke-miterlimit="10" stroke-linejoin="round"/>
<path opacity="0.2" d="M304.769 93.6721H362.51" stroke="#323F4B" stroke-miterlimit="10" stroke-linejoin="round"/>
<path opacity="0.2" d="M333.777 93.9485V211.366" stroke="#323F4B" stroke-miterlimit="10" stroke-linejoin="round"/>
<path opacity="0.2" d="M305.502 115.904H361.668" stroke="#323F4B" stroke-miterlimit="10" stroke-linejoin="round"/>
<g opacity="0.2">
<path d="M342.897 262.559V239.286V223.537C342.897 220.436 340.388 217.927 337.288 217.927H286.456H286.024V262.559V262.948" stroke="#323F4B" stroke-miterlimit="10" stroke-linejoin="round"/>
<path d="M286.456 217.927H286.024H234.236C231.14 217.927 228.631 220.436 228.631 223.537V240.168V262.558" stroke="#323F4B" stroke-miterlimit="10" stroke-linejoin="round"/>
<path d="M347.962 266.287V279.41H286.048V262.558H344.234C346.293 262.559 347.962 264.229 347.962 266.287Z" stroke="#323F4B" stroke-miterlimit="10" stroke-linejoin="round"/>
<path d="M286.521 262.559H286.456H286.048H286.025H229.672H228.631H227.294C225.235 262.559 223.565 264.229 223.565 266.287V279.41H286.047H286.521" stroke="#323F4B" stroke-miterlimit="10" stroke-linejoin="round"/>
<path d="M348.066 279.41H223.566V300.553H348.066V279.41Z" stroke="#323F4B" stroke-miterlimit="10" stroke-linejoin="round"/>
<path d="M228.631 240.168C227.946 239.456 226.98 239.01 225.915 239.01H214.64C212.563 239.01 210.879 240.689 210.879 242.767V296.797C210.879 298.871 212.563 300.554 214.64 300.554H223.565H225.915" stroke="#323F4B" stroke-miterlimit="10" stroke-linejoin="round"/>
<path d="M344.309 300.554H348.066H355.584C357.657 300.554 359.341 298.87 359.341 296.797V242.767C359.341 240.689 357.657 239.01 355.584 239.01H344.309C343.807 239.01 343.334 239.108 342.897 239.286" stroke="#323F4B" stroke-miterlimit="10" stroke-linejoin="round"/>
</g>
<path d="M391.749 206.096C391.749 206.096 385.708 202.74 385.26 210.347C384.813 217.954 383.694 281.054 383.694 281.054" stroke="#323F4B" stroke-width="2" stroke-miterlimit="10" stroke-linecap="round" stroke-linejoin="round"/>
<path d="M382.123 211.017C382.123 211.017 387.05 235.637 384.813 280.382" stroke="#323F4B" stroke-width="2" stroke-miterlimit="10" stroke-linecap="round" stroke-linejoin="round"/>
<path d="M386.964 207.627C386.964 207.627 384.653 209.108 383.338 207.414C382.024 205.719 384.228 202.615 382.285 201.288C380.342 199.961 376.988 201.986 376.988 201.986C376.988 201.986 379.571 202.745 379.488 204.154C379.405 205.564 378.161 206.097 377.995 205.481C377.829 204.865 376.597 201.761 374.5 203.052C372.403 204.342 372.083 206.345 372.083 206.345C372.083 206.345 376.964 205.824 377.26 207.661C377.556 209.497 375.257 207.341 373.244 207.222C371.229 207.103 369.393 207.399 369.523 208.62C369.653 209.84 369.333 211.842 369.333 211.842C369.333 211.842 371.039 210.326 373.255 210.457C375.47 210.588 375.387 211.997 373.373 211.879C371.359 211.76 369.629 213.679 369.629 213.679C369.629 213.679 371.464 216.819 373.799 218.371C376.132 219.924 376.974 219.367 377.246 218.171C377.519 216.974 376.891 213.905 378.302 213.989C379.711 214.072 375.966 219.308 377.767 219.616C379.568 219.925 381.014 219.404 381.488 218.219C381.962 217.034 381.962 217.034 381.962 217.034C381.962 217.034 381.335 213.966 381.607 212.769C381.88 211.572 382.211 212.804 382.531 214.238C382.85 215.671 383.052 219.12 383.668 218.954C384.284 218.788 386.251 216.276 386.713 215.293C387.176 214.31 384.119 211.3 384.155 210.696C384.19 210.092 386.548 211.241 386.915 211.869C387.282 212.497 387.638 213.327 387.638 213.327C387.638 213.327 389.107 212.403 389.072 209.571C389.038 206.739 386.964 207.627 386.964 207.627Z" fill="#FC6814"/>
<path opacity="0.3" d="M386.964 207.627C386.964 207.627 384.653 209.108 383.338 207.414C382.024 205.719 384.228 202.615 382.285 201.288C380.342 199.961 376.988 201.986 376.988 201.986C376.988 201.986 379.571 202.745 379.488 204.154C379.405 205.564 378.161 206.097 377.995 205.481C377.829 204.865 376.597 201.761 374.5 203.052C372.403 204.342 372.083 206.345 372.083 206.345C372.083 206.345 376.964 205.824 377.26 207.661C377.556 209.497 375.257 207.341 373.244 207.222C371.229 207.103 369.393 207.399 369.523 208.62C369.653 209.84 369.333 211.842 369.333 211.842C369.333 211.842 371.039 210.326 373.255 210.457C375.47 210.588 375.387 211.997 373.373 211.879C371.359 211.76 369.629 213.679 369.629 213.679C369.629 213.679 371.464 216.819 373.799 218.371C376.132 219.924 376.974 219.367 377.246 218.171C377.519 216.974 376.891 213.905 378.302 213.989C379.711 214.072 375.966 219.308 377.767 219.616C379.568 219.925 381.014 219.404 381.488 218.219C381.962 217.034 381.962 217.034 381.962 217.034C381.962 217.034 381.335 213.966 381.607 212.769C381.88 211.572 382.211 212.804 382.531 214.238C382.85 215.671 383.052 219.12 383.668 218.954C384.284 218.788 386.251 216.276 386.713 215.293C387.176 214.31 384.119 211.3 384.155 210.696C384.19 210.092 386.548 211.241 386.915 211.869C387.282 212.497 387.638 213.327 387.638 213.327C387.638 213.327 389.107 212.403 389.072 209.571C389.038 206.739 386.964 207.627 386.964 207.627Z" fill="#323F4B"/>
<path d="M375.25 214.267C376.757 212.405 378.978 209.884 380.839 208.681" stroke="#323F4B" stroke-width="0.5" stroke-miterlimit="10" stroke-linecap="round" stroke-linejoin="round"/>
<path d="M373.503 216.535C373.503 216.535 373.89 215.997 374.517 215.191" stroke="#323F4B" stroke-width="0.5" stroke-miterlimit="10" stroke-linecap="round" stroke-linejoin="round"/>
<path d="M381.821 209.143C381.821 209.143 384.06 212.307 384.474 215.565" stroke="#323F4B" stroke-width="0.5" stroke-miterlimit="10" stroke-linecap="round" stroke-linejoin="round"/>
<path d="M379.286 211.015C379.286 211.015 379.914 210.647 379.676 214.676" stroke="#323F4B" stroke-width="0.5" stroke-miterlimit="10" stroke-linecap="round" stroke-linejoin="round"/>
<path d="M380.921 207.271C380.921 207.271 382.201 206.134 381.526 203.871" stroke="#323F4B" stroke-width="0.5" stroke-miterlimit="10" stroke-linecap="round" stroke-linejoin="round"/>
<path d="M379.191 209.19L378.279 207.519" stroke="#323F4B" stroke-width="0.5" stroke-miterlimit="10" stroke-linecap="round" stroke-linejoin="round"/>
<path d="M377.272 210.896C377.272 210.896 374.37 208.704 372.557 208.597" stroke="#323F4B" stroke-width="0.5" stroke-miterlimit="10" stroke-linecap="round" stroke-linejoin="round"/>
<path d="M395.199 201.658C395.199 201.658 395.107 204.981 392.514 205.142C389.921 205.304 388.316 200.981 385.663 202.022C383.01 203.062 382.752 207.8 382.752 207.8C382.752 207.8 385.273 205.732 386.628 206.776C387.983 207.82 387.668 209.429 386.938 209.175C386.208 208.921 382.261 208.038 382.124 211.018C381.987 213.998 383.773 215.683 383.773 215.683C383.773 215.683 386.579 210.441 388.62 211.397C390.66 212.352 386.934 213.183 385.442 215.119C383.951 217.055 382.995 219.094 384.306 219.796C385.616 220.498 387.403 222.183 387.403 222.183C387.403 222.183 387.048 219.441 388.688 217.312C390.33 215.183 391.684 216.228 390.193 218.163C388.7 220.098 389.443 223.139 389.443 223.139C389.443 223.139 393.838 223.441 396.983 222.163C400.128 220.885 400.144 219.663 399.132 218.574C398.12 217.485 394.62 216.022 395.664 214.667C396.709 213.312 399.399 220.63 400.935 219.037C402.471 217.445 402.935 215.642 402.071 214.36C401.209 213.078 401.209 213.078 401.209 213.078C401.209 213.078 397.708 211.614 396.696 210.525C395.684 209.437 397.143 209.944 398.797 210.602C400.45 211.259 404.039 213.408 404.293 212.678C404.547 211.948 403.373 208.266 402.704 207.134C402.035 206.001 396.938 207.009 396.357 206.562C395.776 206.114 398.534 204.537 399.413 204.598C400.292 204.659 401.365 204.868 401.365 204.868C401.365 204.868 401.441 202.767 398.582 200.872C395.724 198.976 395.199 201.658 395.199 201.658Z" fill="#FC6814"/>
<path opacity="0.2" d="M395.199 201.658C395.199 201.658 395.107 204.981 392.514 205.142C389.921 205.304 388.316 200.981 385.663 202.022C383.01 203.062 382.752 207.8 382.752 207.8C382.752 207.8 385.273 205.732 386.628 206.776C387.983 207.82 387.668 209.429 386.938 209.175C386.208 208.921 382.261 208.038 382.124 211.018C381.987 213.998 383.773 215.683 383.773 215.683C383.773 215.683 386.579 210.441 388.62 211.397C390.66 212.352 386.934 213.183 385.442 215.119C383.951 217.055 382.995 219.094 384.306 219.796C385.616 220.498 387.403 222.183 387.403 222.183C387.403 222.183 387.048 219.441 388.688 217.312C390.33 215.183 391.684 216.228 390.193 218.163C388.7 220.098 389.443 223.139 389.443 223.139C389.443 223.139 393.838 223.441 396.983 222.163C400.128 220.885 400.144 219.663 399.132 218.574C398.12 217.485 394.62 216.022 395.664 214.667C396.709 213.312 399.399 220.63 400.935 219.037C402.471 217.445 402.935 215.642 402.071 214.36C401.209 213.078 401.209 213.078 401.209 213.078C401.209 213.078 397.708 211.614 396.696 210.525C395.684 209.437 397.143 209.944 398.797 210.602C400.45 211.259 404.039 213.408 404.293 212.678C404.547 211.948 403.373 208.266 402.704 207.134C402.035 206.001 396.938 207.009 396.357 206.562C395.776 206.114 398.534 204.537 399.413 204.598C400.292 204.659 401.365 204.868 401.365 204.868C401.365 204.868 401.441 202.767 398.582 200.872C395.724 198.976 395.199 201.658 395.199 201.658Z" fill="#323F4B"/>
<path d="M393.863 217.912C393.025 215.134 392.015 211.192 392.079 208.509" stroke="#323F4B" stroke-width="0.5" stroke-miterlimit="10" stroke-linecap="round" stroke-linejoin="round"/>
<path d="M394.943 221.206C394.943 221.206 394.668 220.452 394.288 219.275" stroke="#323F4B" stroke-miterlimit="10" stroke-linecap="round" stroke-linejoin="round"/>
<path d="M393.212 207.84C393.212 207.84 397.905 207.755 401.45 209.561" stroke="#323F4B" stroke-width="0.5" stroke-miterlimit="10" stroke-linecap="round" stroke-linejoin="round"/>
<path d="M393.357 211.654C393.357 211.654 393.418 210.775 397.289 213.759" stroke="#323F4B" stroke-width="0.5" stroke-miterlimit="10" stroke-linecap="round" stroke-linejoin="round"/>
<path d="M390.725 207.465C390.725 207.465 390.458 205.408 387.732 204.541" stroke="#323F4B" stroke-width="0.5" stroke-miterlimit="10" stroke-linecap="round" stroke-linejoin="round"/>
<path d="M391.467 210.505L389.172 210.28" stroke="#323F4B" stroke-width="0.5" stroke-miterlimit="10" stroke-linecap="round" stroke-linejoin="round"/>
<path d="M391.865 213.59C391.865 213.59 387.692 215.001 386.35 216.743" stroke="#323F4B" stroke-width="0.5" stroke-miterlimit="10" stroke-linecap="round" stroke-linejoin="round"/>
<path d="M367.362 223.771C367.362 223.771 380.562 246.152 380.338 279.935" stroke="#323F4B" stroke-width="2" stroke-miterlimit="10" stroke-linecap="round" stroke-linejoin="round"/>
<path d="M383.638 221.466C383.638 221.466 383.217 225.291 380.21 225.233C377.204 225.174 375.759 220.035 372.6 220.985C369.44 221.936 368.695 227.379 368.695 227.379C368.695 227.379 371.798 225.229 373.263 226.562C374.728 227.895 374.213 229.722 373.395 229.36C372.577 228.998 368.105 227.607 367.665 231.032C367.226 234.458 369.129 236.572 369.129 236.572C369.129 236.572 372.861 230.787 375.126 232.083C377.39 233.378 373.012 233.985 371.108 236.078C369.204 238.17 367.909 240.435 369.355 241.368C370.801 242.301 372.703 244.414 372.703 244.414C372.703 244.414 372.553 241.217 374.647 238.915C376.742 236.613 378.206 237.946 376.302 240.039C374.398 242.131 374.968 245.71 374.968 245.71C374.968 245.71 380.011 246.474 383.761 245.295C387.511 244.117 387.644 242.708 386.579 241.357C385.514 240.005 381.613 237.986 382.946 236.52C384.279 235.056 386.692 243.754 388.615 242.061C390.538 240.368 391.243 238.332 390.368 236.771C389.493 235.21 389.493 235.21 389.493 235.21C389.493 235.21 385.593 233.191 384.527 231.839C383.462 230.488 385.099 231.211 386.944 232.126C388.79 233.04 392.729 235.858 393.091 235.041C393.452 234.222 392.446 229.863 391.78 228.493C391.115 227.122 385.138 227.805 384.511 227.234C383.883 226.662 387.214 225.103 388.223 225.256C389.232 225.408 390.449 225.752 390.449 225.752C390.449 225.752 390.736 223.335 387.616 220.878C384.496 218.421 383.638 221.466 383.638 221.466Z" fill="#FC6814"/>
<path opacity="0.3" d="M383.638 221.466C383.638 221.466 383.217 225.291 380.21 225.233C377.204 225.174 375.759 220.035 372.6 220.985C369.44 221.936 368.695 227.379 368.695 227.379C368.695 227.379 371.798 225.229 373.263 226.562C374.728 227.895 374.213 229.722 373.395 229.36C372.577 228.998 368.105 227.607 367.665 231.032C367.226 234.458 369.129 236.572 369.129 236.572C369.129 236.572 372.861 230.787 375.126 232.083C377.39 233.378 373.012 233.985 371.108 236.078C369.204 238.17 367.909 240.435 369.355 241.368C370.801 242.301 372.703 244.414 372.703 244.414C372.703 244.414 372.553 241.217 374.647 238.915C376.742 236.613 378.206 237.946 376.302 240.039C374.398 242.131 374.968 245.71 374.968 245.71C374.968 245.71 380.011 246.474 383.761 245.295C387.511 244.117 387.644 242.708 386.579 241.357C385.514 240.005 381.613 237.986 382.946 236.52C384.279 235.056 386.692 243.754 388.615 242.061C390.538 240.368 391.243 238.332 390.368 236.771C389.493 235.21 389.493 235.21 389.493 235.21C389.493 235.21 385.593 233.191 384.527 231.839C383.462 230.488 385.099 231.211 386.944 232.126C388.79 233.04 392.729 235.858 393.091 235.041C393.452 234.222 392.446 229.863 391.78 228.493C391.115 227.122 385.138 227.805 384.511 227.234C383.883 226.662 387.214 225.103 388.223 225.256C389.232 225.408 390.449 225.752 390.449 225.752C390.449 225.752 390.736 223.335 387.616 220.878C384.496 218.421 383.638 221.466 383.638 221.466Z" fill="#323F4B"/>
<path d="M380.561 240.095C379.857 236.81 379.063 232.167 379.39 229.077" stroke="#323F4B" stroke-width="0.5" stroke-miterlimit="10" stroke-linecap="round" stroke-linejoin="round"/>
<path d="M381.496 243.999C381.496 243.999 381.25 243.103 380.924 241.709" stroke="#323F4B" stroke-miterlimit="10" stroke-linecap="round" stroke-linejoin="round"/>
<path d="M380.761 228.412C380.761 228.412 386.185 228.756 390.104 231.175" stroke="#323F4B" stroke-width="0.5" stroke-miterlimit="10" stroke-linecap="round" stroke-linejoin="round"/>
<path d="M380.568 232.827C380.568 232.827 380.721 231.818 384.907 235.626" stroke="#323F4B" stroke-width="0.5" stroke-miterlimit="10" stroke-linecap="round" stroke-linejoin="round"/>
<path d="M377.926 227.744C377.926 227.744 377.812 225.346 374.749 224.088" stroke="#323F4B" stroke-width="0.5" stroke-miterlimit="10" stroke-linecap="round" stroke-linejoin="round"/>
<path d="M378.494 231.322L375.868 230.845" stroke="#323F4B" stroke-width="0.5" stroke-miterlimit="10" stroke-linecap="round" stroke-linejoin="round"/>
<path d="M378.665 234.92C378.665 234.92 373.716 236.154 372.002 238.038" stroke="#323F4B" stroke-width="0.5" stroke-miterlimit="10" stroke-linecap="round" stroke-linejoin="round"/>
<path d="M383.638 253.449C383.638 253.449 383.217 257.274 380.21 257.216C377.204 257.158 375.759 252.018 372.6 252.968C369.44 253.919 368.695 259.362 368.695 259.362C368.695 259.362 371.798 257.213 373.263 258.546C374.728 259.878 374.213 261.705 373.395 261.343C372.577 260.981 368.105 259.59 367.665 263.016C367.226 266.441 369.129 268.555 369.129 268.555C369.129 268.555 372.861 262.77 375.126 264.066C377.39 265.361 373.012 265.968 371.108 268.061C369.204 270.153 367.909 272.418 369.355 273.351C370.801 274.284 372.703 276.398 372.703 276.398C372.703 276.398 372.553 273.2 374.647 270.898C376.742 268.596 378.206 269.93 376.302 272.022C374.398 274.115 374.968 277.693 374.968 277.693C374.968 277.693 380.011 278.457 383.761 277.278C387.511 276.1 387.644 274.691 386.579 273.34C385.514 271.988 381.613 269.969 382.946 268.504C384.279 267.039 386.692 275.738 388.615 274.045C390.538 272.352 391.243 270.316 390.368 268.755C389.493 267.194 389.493 267.194 389.493 267.194C389.493 267.194 385.593 265.174 384.527 263.823C383.462 262.471 385.099 263.195 386.944 264.109C388.79 265.024 392.729 267.842 393.091 267.024C393.452 266.206 392.446 261.847 391.78 260.477C391.115 259.106 385.138 259.789 384.511 259.217C383.883 258.646 387.214 257.087 388.223 257.239C389.232 257.392 390.449 257.735 390.449 257.735C390.449 257.735 390.736 255.318 387.616 252.862C384.496 250.404 383.638 253.449 383.638 253.449Z" fill="#FC6814"/>
<path opacity="0.3" d="M383.638 253.449C383.638 253.449 383.217 257.274 380.21 257.216C377.204 257.158 375.759 252.018 372.6 252.968C369.44 253.919 368.695 259.362 368.695 259.362C368.695 259.362 371.798 257.213 373.263 258.546C374.728 259.878 374.213 261.705 373.395 261.343C372.577 260.981 368.105 259.59 367.665 263.016C367.226 266.441 369.129 268.555 369.129 268.555C369.129 268.555 372.861 262.77 375.126 264.066C377.39 265.361 373.012 265.968 371.108 268.061C369.204 270.153 367.909 272.418 369.355 273.351C370.801 274.284 372.703 276.398 372.703 276.398C372.703 276.398 372.553 273.2 374.647 270.898C376.742 268.596 378.206 269.93 376.302 272.022C374.398 274.115 374.968 277.693 374.968 277.693C374.968 277.693 380.011 278.457 383.761 277.278C387.511 276.1 387.644 274.691 386.579 273.34C385.514 271.988 381.613 269.969 382.946 268.504C384.279 267.039 386.692 275.738 388.615 274.045C390.538 272.352 391.243 270.316 390.368 268.755C389.493 267.194 389.493 267.194 389.493 267.194C389.493 267.194 385.593 265.174 384.527 263.823C383.462 262.471 385.099 263.195 386.944 264.109C388.79 265.024 392.729 267.842 393.091 267.024C393.452 266.206 392.446 261.847 391.78 260.477C391.115 259.106 385.138 259.789 384.511 259.217C383.883 258.646 387.214 257.087 388.223 257.239C389.232 257.392 390.449 257.735 390.449 257.735C390.449 257.735 390.736 255.318 387.616 252.862C384.496 250.404 383.638 253.449 383.638 253.449Z" fill="#323F4B"/>
<path d="M380.561 272.079C379.857 268.794 379.063 264.15 379.39 261.06" stroke="#323F4B" stroke-miterlimit="10" stroke-linecap="round" stroke-linejoin="round"/>
<path d="M381.496 275.982C381.496 275.982 381.25 275.086 380.924 273.692" stroke="#323F4B" stroke-miterlimit="10" stroke-linecap="round" stroke-linejoin="round"/>
<path d="M380.761 260.395C380.761 260.395 386.185 260.74 390.104 263.158" stroke="#323F4B" stroke-width="0.5" stroke-miterlimit="10" stroke-linecap="round" stroke-linejoin="round"/>
<path d="M380.568 264.81C380.568 264.81 380.721 263.801 384.907 267.61" stroke="#323F4B" stroke-miterlimit="10" stroke-linecap="round" stroke-linejoin="round"/>
<path d="M377.926 259.727C377.926 259.727 377.812 257.329 374.749 256.071" stroke="#323F4B" stroke-miterlimit="10" stroke-linecap="round" stroke-linejoin="round"/>
<path d="M378.494 263.306L375.868 262.829" stroke="#323F4B" stroke-miterlimit="10" stroke-linecap="round" stroke-linejoin="round"/>
<path d="M378.665 266.903C378.665 266.903 373.716 268.137 372.002 270.021" stroke="#323F4B" stroke-width="0.5" stroke-miterlimit="10" stroke-linecap="round" stroke-linejoin="round"/>
<path d="M372.508 250.395C372.508 250.395 381.009 270.539 381.904 280.159L380.115 234.286" stroke="#323F4B" stroke-width="2" stroke-miterlimit="10" stroke-linecap="round" stroke-linejoin="round"/>
<path d="M393.091 245.696C381.904 243.682 381.904 280.159 381.904 280.159" stroke="#323F4B" stroke-width="2" stroke-miterlimit="10" stroke-linecap="round" stroke-linejoin="round"/>
<path d="M383.246 279.935C383.246 279.935 376.759 219.073 395.551 219.073" stroke="#323F4B" stroke-width="2" stroke-miterlimit="10" stroke-linecap="round" stroke-linejoin="round"/>
<path d="M388.829 244.339C387.301 242.62 384.054 242.62 382.144 247.013C380.234 251.406 381.953 250.642 381.953 250.642C381.953 250.642 385.582 249.496 387.874 248.732C390.166 247.968 393.222 246.058 393.413 247.204C393.604 248.35 391.885 249.496 389.784 249.878C387.683 250.26 382.144 251.788 382.717 252.934C383.29 254.079 384.627 257.518 384.627 257.518C384.627 257.518 387.301 255.226 389.784 253.698C392.267 252.17 393.795 252.743 392.458 254.462C391.121 256.181 387.301 258.091 388.064 260.383C388.829 262.675 393.412 265.54 393.412 265.54C393.412 265.54 393.986 260.765 395.322 259.237C396.659 257.709 396.659 259.428 396.277 262.102C395.895 264.777 395.895 265.54 395.895 265.54L401.243 267.45C401.243 267.45 403.153 264.585 404.108 263.63C405.063 262.675 405.063 262.675 405.063 262.675C405.063 262.675 400.861 259.046 400.67 256.754C400.478 254.462 403.534 256.754 404.49 257.136C405.444 257.518 406.973 260.192 406.973 260.192C406.973 260.192 407.928 255.799 408.119 254.271C408.31 252.743 408.31 252.743 408.31 252.743C408.31 252.743 404.299 251.215 402.771 251.215C401.243 251.215 400.478 252.361 400.478 250.833C400.478 249.305 402.006 248.35 403.725 248.541C405.444 248.732 408.309 249.687 408.309 249.687C408.309 249.687 409.455 248.732 409.073 245.867C408.691 243.002 407.737 243.002 405.444 243.765C403.152 244.53 401.624 246.249 399.905 246.249C398.186 246.249 399.141 244.148 400.287 243.575C401.434 243.002 404.299 241.856 404.871 241.665C405.444 241.474 401.815 238.8 399.905 238.418C397.995 238.036 395.522 239.381 395.703 241.283C396.087 245.294 390.357 246.058 388.829 244.339Z" fill="#FC6814"/>
<path d="M401.124 264.005C401.181 264.581 401.222 265.157 401.244 265.731" stroke="#323F4B" stroke-width="0.5" stroke-miterlimit="10" stroke-linecap="round" stroke-linejoin="round"/>
<path d="M397.287 250.294C398.629 253.394 400.18 257.668 400.882 262.129" stroke="#323F4B" stroke-width="0.5" stroke-miterlimit="10" stroke-linecap="round" stroke-linejoin="round"/>
<path d="M396.599 248.761C395.653 246.726 394.94 245.485 394.94 245.485C394.94 245.485 396.659 244.721 397.424 243.193C398.188 241.665 399.334 240.901 399.334 240.901" stroke="#323F4B" stroke-width="0.5" stroke-miterlimit="10" stroke-linecap="round" stroke-linejoin="round"/>
<path d="M388.256 251.979C388.256 251.979 395.132 249.115 395.132 249.687" stroke="#323F4B" stroke-width="0.5" stroke-miterlimit="10" stroke-linecap="round" stroke-linejoin="round"/>
<path d="M398.952 248.35C398.952 248.35 402.008 246.822 404.682 246.822" stroke="#323F4B" stroke-width="0.5" stroke-miterlimit="10" stroke-linecap="round" stroke-linejoin="round"/>
<path d="M397.806 252.934C397.806 252.934 396.087 254.271 394.177 256.563C392.267 258.855 391.503 260.956 391.503 260.956" stroke="#323F4B" stroke-width="0.5" stroke-miterlimit="10" stroke-linecap="round" stroke-linejoin="round"/>
<path d="M399.907 253.698C399.907 253.698 403.918 252.552 406.02 254.462" stroke="#323F4B" stroke-width="0.5" stroke-miterlimit="10" stroke-linecap="round" stroke-linejoin="round"/>
<path d="M407.172 227.89C405.093 226.66 402.793 226.633 401.666 225.335C400.539 224.037 402.751 223.381 403.936 223.87C405.12 224.36 407.863 225.772 408.383 226.08C408.903 226.387 408.543 221.894 407.579 220.201C406.615 218.508 403.978 217.523 402.661 218.906C399.882 221.824 395.549 217.998 395.846 215.717C396.142 213.436 394.013 210.984 389.444 212.422C384.874 213.86 386.578 214.657 386.578 214.657C386.578 214.657 389.822 216.646 391.902 217.876C393.981 219.106 397.427 220.162 396.687 221.058C395.947 221.953 393.954 221.406 392.288 220.07C390.622 218.734 385.837 215.553 385.348 216.737C384.858 217.92 383.138 221.184 383.138 221.184C383.138 221.184 386.622 221.7 389.404 222.574C392.185 223.447 392.754 224.977 390.58 225.094C388.405 225.211 384.458 223.579 383.229 225.658C381.999 227.737 382.841 233.077 382.841 233.077C382.841 233.077 386.822 230.38 388.852 230.387C390.883 230.396 389.585 231.522 387.315 232.987C385.045 234.452 384.468 234.953 384.468 234.953L386.532 240.243C386.532 240.243 389.948 239.807 391.295 239.902C392.642 239.997 392.642 239.997 392.642 239.997C392.642 239.997 392.627 234.445 394.233 232.798C395.838 231.152 396.111 234.962 396.449 235.934C396.786 236.905 395.769 239.812 395.769 239.812C395.769 239.812 399.712 237.653 400.991 236.795C402.271 235.938 402.271 235.938 402.271 235.938C402.271 235.938 400.795 231.907 399.793 230.753C398.792 229.599 397.426 229.774 398.579 228.772C399.733 227.77 401.456 228.298 402.439 229.721C403.422 231.145 404.579 233.934 404.579 233.934C404.579 233.934 406.051 234.174 407.964 232.007C409.878 229.841 409.251 229.12 407.172 227.89ZM389.096 234.004C387.568 233.24 391.197 231.712 391.197 231.712C392.534 231.521 390.624 234.768 389.096 234.004ZM391.669 226.873C391.018 226.548 392.972 225.896 392.972 225.896C395.794 226.439 392.321 227.199 391.669 226.873Z" fill="#FC6814"/>
<path d="M389.055 237.895C388.658 238.315 388.25 238.723 387.83 239.117" stroke="#323F4B" stroke-width="0.5" stroke-miterlimit="10" stroke-linecap="round" stroke-linejoin="round"/>
<path d="M396.894 226.008C395.432 229.054 393.221 233.027 390.313 236.482" stroke="#323F4B" stroke-width="0.5" stroke-miterlimit="10" stroke-linecap="round" stroke-linejoin="round"/>
<path d="M397.601 224.484C398.517 222.436 398.987 221.084 398.987 221.084C398.987 221.084 400.69 221.882 402.345 221.457C404 221.032 405.328 221.397 405.328 221.397" stroke="#323F4B" stroke-width="0.5" stroke-miterlimit="10" stroke-linecap="round" stroke-linejoin="round"/>
<path d="M389.7 220.293C389.7 220.293 396.372 223.608 395.939 223.983" stroke="#323F4B" stroke-width="0.5" stroke-miterlimit="10" stroke-linecap="round" stroke-linejoin="round"/>
<path d="M399.453 225.991C399.453 225.991 402.611 227.297 404.363 229.317" stroke="#323F4B" stroke-width="0.5" stroke-miterlimit="10" stroke-linecap="round" stroke-linejoin="round"/>
<path d="M395.24 228.131C395.24 228.131 393.103 227.71 390.12 227.77C387.137 227.83 385.05 228.631 385.05 228.631" stroke="#323F4B" stroke-width="0.5" stroke-miterlimit="10" stroke-linecap="round" stroke-linejoin="round"/>
<path d="M396.041 230.219C396.041 230.219 399.536 232.496 399.471 235.335" stroke="#323F4B" stroke-width="0.5" stroke-miterlimit="10" stroke-linecap="round" stroke-linejoin="round"/>
<path d="M377.492 254.356C375.819 253.366 373.968 253.344 373.061 252.3C372.154 251.255 373.935 250.727 374.888 251.121C375.841 251.515 378.048 252.651 378.467 252.899C378.885 253.147 378.596 249.53 377.82 248.168C377.045 246.806 374.922 246.013 373.862 247.126C371.626 249.474 368.139 246.395 368.377 244.56C368.616 242.724 366.903 240.751 363.225 241.908C359.548 243.065 360.919 243.707 360.919 243.707C360.919 243.707 363.53 245.307 365.204 246.297C366.877 247.287 369.65 248.136 369.055 248.857C368.459 249.578 366.855 249.138 365.515 248.063C364.175 246.987 360.324 244.427 359.929 245.38C359.535 246.333 358.151 248.959 358.151 248.959C358.151 248.959 360.955 249.375 363.194 250.078C365.432 250.781 365.89 252.012 364.14 252.106C362.39 252.201 359.214 250.886 358.224 252.56C357.234 254.234 357.912 258.531 357.912 258.531C357.912 258.531 361.116 256.36 362.75 256.366C364.383 256.372 363.339 257.279 361.512 258.458C359.686 259.637 359.222 260.04 359.222 260.04L360.883 264.297C360.883 264.297 363.631 263.947 364.715 264.023C365.8 264.1 365.8 264.1 365.8 264.1C365.8 264.1 365.788 259.632 367.08 258.306C368.372 256.981 368.591 260.048 368.863 260.829C369.135 261.611 368.316 263.951 368.316 263.951C368.316 263.951 371.489 262.213 372.518 261.523C373.548 260.834 373.548 260.834 373.548 260.834C373.548 260.834 372.36 257.59 371.555 256.661C370.748 255.733 369.649 255.873 370.578 255.067C371.506 254.261 372.892 254.685 373.683 255.831C374.474 256.977 375.405 259.222 375.405 259.222C375.405 259.222 376.59 259.414 378.13 257.671C379.67 255.926 379.166 255.345 377.492 254.356ZM362.946 259.276C361.716 258.661 364.637 257.431 364.637 257.431C365.713 257.278 364.176 259.891 362.946 259.276ZM365.017 253.538C364.493 253.275 366.065 252.751 366.065 252.751C368.336 253.188 365.541 253.799 365.017 253.538Z" fill="#FC6814"/>
<path d="M362.913 262.407C362.594 262.745 362.265 263.074 361.928 263.391" stroke="#323F4B" stroke-width="0.5" stroke-miterlimit="10" stroke-linecap="round" stroke-linejoin="round"/>
<path d="M369.221 252.842C368.045 255.292 366.266 258.49 363.926 261.27" stroke="#323F4B" stroke-width="0.5" stroke-miterlimit="10" stroke-linecap="round" stroke-linejoin="round"/>
<path d="M369.79 251.614C370.527 249.966 370.906 248.878 370.906 248.878C370.906 248.878 372.277 249.52 373.608 249.178C374.94 248.836 376.008 249.13 376.008 249.13" stroke="#323F4B" stroke-width="0.5" stroke-miterlimit="10" stroke-linecap="round" stroke-linejoin="round"/>
<path d="M363.433 248.242C363.433 248.242 368.801 250.91 368.453 251.212" stroke="#323F4B" stroke-width="0.5" stroke-miterlimit="10" stroke-linecap="round" stroke-linejoin="round"/>
<path d="M371.28 252.828C371.28 252.828 373.821 253.879 375.232 255.504" stroke="#323F4B" stroke-width="0.5" stroke-miterlimit="10" stroke-linecap="round" stroke-linejoin="round"/>
<path d="M367.891 254.55C367.891 254.55 366.171 254.211 363.771 254.259C361.371 254.308 359.69 254.952 359.69 254.952" stroke="#323F4B" stroke-width="0.5" stroke-miterlimit="10" stroke-linecap="round" stroke-linejoin="round"/>
<path d="M368.534 256.229C368.534 256.229 371.346 258.062 371.294 260.347" stroke="#323F4B" stroke-width="0.5" stroke-miterlimit="10" stroke-linecap="round" stroke-linejoin="round"/>
<path d="M370.669 222.815C370.669 222.815 368.568 224.343 367.231 222.815C365.894 221.287 367.804 218.232 365.894 217.085C363.984 215.939 360.928 218.04 360.928 218.04C360.928 218.04 363.411 218.613 363.411 219.95C363.411 221.287 362.265 221.86 362.074 221.287C361.883 220.714 360.546 217.849 358.636 219.186C356.726 220.523 356.535 222.433 356.535 222.433C356.535 222.433 361.119 221.668 361.501 223.387C361.883 225.106 359.591 223.196 357.681 223.196C355.771 223.196 354.052 223.579 354.243 224.724C354.434 225.87 354.243 227.78 354.243 227.78C354.243 227.78 355.771 226.252 357.872 226.252C359.973 226.252 359.973 227.589 358.063 227.589C356.153 227.589 354.625 229.499 354.625 229.499C354.625 229.499 356.535 232.364 358.827 233.702C361.12 235.038 361.883 234.466 362.074 233.319C362.265 232.174 361.501 229.308 362.839 229.308C364.175 229.308 360.929 234.465 362.648 234.656C364.367 234.847 365.703 234.274 366.086 233.128C366.468 231.983 366.468 231.983 366.468 231.983C366.468 231.983 365.703 229.118 365.894 227.971C366.086 226.825 366.468 227.971 366.849 229.308C367.231 230.645 367.613 233.892 368.186 233.701C368.759 233.51 370.478 231.027 370.86 230.072C371.242 229.117 368.186 226.443 368.186 225.87C368.186 225.297 370.478 226.252 370.86 226.824C371.242 227.397 371.624 228.161 371.624 228.161C371.624 228.161 372.961 227.207 372.77 224.532C372.579 221.861 370.669 222.815 370.669 222.815Z" fill="#FC6814"/>
<path d="M359.969 229.743C361.289 227.898 363.247 225.392 364.939 224.152" stroke="#323F4B" stroke-width="0.5" stroke-miterlimit="10" stroke-linecap="round" stroke-linejoin="round"/>
<path d="M358.444 231.984C358.444 231.984 358.78 231.453 359.328 230.657" stroke="#323F4B" stroke-width="0.5" stroke-miterlimit="10" stroke-linecap="round" stroke-linejoin="round"/>
<path d="M365.894 224.534C365.894 224.534 368.186 227.399 368.758 230.456" stroke="#323F4B" stroke-width="0.5" stroke-miterlimit="10" stroke-linecap="round" stroke-linejoin="round"/>
<path d="M363.602 226.444C363.602 226.444 364.175 226.062 364.175 229.882" stroke="#323F4B" stroke-width="0.5" stroke-miterlimit="10" stroke-linecap="round" stroke-linejoin="round"/>
<path d="M364.938 222.815C364.938 222.815 366.084 221.669 365.321 219.568" stroke="#323F4B" stroke-width="0.5" stroke-miterlimit="10" stroke-linecap="round" stroke-linejoin="round"/>
<path d="M363.41 224.725L362.455 223.198" stroke="#323F4B" stroke-width="0.5" stroke-miterlimit="10" stroke-linecap="round" stroke-linejoin="round"/>
<path d="M361.692 226.444C361.692 226.444 358.827 224.534 357.108 224.534" stroke="#323F4B" stroke-width="0.5" stroke-miterlimit="10" stroke-linecap="round" stroke-linejoin="round"/>
<path d="M389.283 263.408C389.283 263.408 387.182 264.936 385.845 263.408C384.508 261.88 386.418 258.824 384.508 257.678C382.598 256.531 379.542 258.632 379.542 258.632C379.542 258.632 382.025 259.205 382.025 260.542C382.025 261.879 380.88 262.453 380.689 261.879C380.498 261.306 379.161 258.441 377.251 259.778C375.341 261.115 375.15 263.025 375.15 263.025C375.15 263.025 379.733 262.261 380.115 263.98C380.498 265.699 378.205 263.789 376.295 263.789C374.385 263.789 372.666 264.171 372.857 265.317C373.048 266.463 372.857 268.373 372.857 268.373C372.857 268.373 374.385 266.845 376.486 266.845C378.587 266.845 378.587 268.182 376.677 268.182C374.767 268.182 373.239 270.092 373.239 270.092C373.239 270.092 375.149 272.957 377.442 274.294C379.734 275.631 380.498 275.058 380.689 273.912C380.88 272.766 380.115 269.901 381.453 269.901C382.79 269.901 379.543 275.058 381.262 275.249C382.981 275.44 384.318 274.867 384.7 273.721C385.082 272.575 385.082 272.575 385.082 272.575C385.082 272.575 384.318 269.71 384.509 268.564C384.7 267.418 385.082 268.564 385.463 269.901C385.845 271.238 386.228 274.485 386.8 274.293C387.374 274.102 389.093 271.62 389.474 270.664C389.856 269.71 386.8 267.035 386.8 266.462C386.8 265.889 389.093 266.844 389.474 267.417C389.856 267.99 390.238 268.754 390.238 268.754C390.238 268.754 391.575 267.799 391.384 265.125C391.193 262.453 389.283 263.408 389.283 263.408Z" fill="#FC6814"/>
<path d="M378.583 270.336C379.903 268.492 381.861 265.986 383.553 264.745" stroke="#323F4B" stroke-width="0.5" stroke-miterlimit="10" stroke-linecap="round" stroke-linejoin="round"/>
<path d="M377.059 272.576C377.059 272.576 377.394 272.046 377.942 271.249" stroke="#323F4B" stroke-width="0.5" stroke-miterlimit="10" stroke-linecap="round" stroke-linejoin="round"/>
<path d="M384.508 265.127C384.508 265.127 386.8 267.992 387.373 271.048" stroke="#323F4B" stroke-width="0.5" stroke-miterlimit="10" stroke-linecap="round" stroke-linejoin="round"/>
<path d="M382.216 267.037C382.216 267.037 382.789 266.655 382.789 270.475" stroke="#323F4B" stroke-width="0.5" stroke-miterlimit="10" stroke-linecap="round" stroke-linejoin="round"/>
<path d="M383.553 263.408C383.553 263.408 384.699 262.262 383.935 260.161" stroke="#323F4B" stroke-width="0.5" stroke-miterlimit="10" stroke-linecap="round" stroke-linejoin="round"/>
<path d="M382.025 265.318L381.07 263.79" stroke="#323F4B" stroke-width="0.5" stroke-miterlimit="10" stroke-linecap="round" stroke-linejoin="round"/>
<path d="M380.306 267.037C380.306 267.037 377.442 265.127 375.723 265.127" stroke="#323F4B" stroke-width="0.5" stroke-miterlimit="10" stroke-linecap="round" stroke-linejoin="round"/>
<path d="M389.959 279.299H375.193V300.554H389.959V279.299Z" fill="#323F4B"/>
<path d="M206.478 300.553H176.708" stroke="#323F4B" stroke-miterlimit="10" stroke-linejoin="round"/>
<path d="M400.567 300.553H212.038" stroke="#323F4B" stroke-miterlimit="10" stroke-linejoin="round"/>
<path d="M333.182 292.805C333.182 292.805 332.415 299.623 332.673 299.796C332.931 299.968 333.275 300.312 334.307 300.484C335.339 300.655 337.145 300.741 337.661 300.914C338.178 301.086 340.585 301.946 343.166 302.462C345.746 302.978 349.014 302.29 349.014 301.688C349.014 301.086 348.67 299.968 347.982 299.28C347.294 298.592 343.94 296.442 343.423 295.667C342.907 294.893 341.944 292.805 341.944 292.805C341.944 292.805 335.583 292.179 333.182 292.805Z" fill="white" stroke="#323F4B" stroke-width="0.5" stroke-miterlimit="10" stroke-linecap="round" stroke-linejoin="round"/>
<path d="M349.014 301.688C349.014 301.586 349.001 301.465 348.981 301.337C348.414 301.512 347.444 301.688 345.832 301.688C342.65 301.688 339.726 300.226 337.833 299.882C336.49 299.638 333.984 299.049 332.639 298.727C332.609 299.337 332.612 299.756 332.673 299.796C332.931 299.968 333.275 300.312 334.307 300.484C335.339 300.656 337.145 300.742 337.661 300.914C338.177 301.086 340.585 301.946 343.165 302.462C345.746 302.978 349.014 302.29 349.014 301.688Z" fill="white" stroke="#323F4B" stroke-width="0.5" stroke-miterlimit="10" stroke-linecap="round" stroke-linejoin="round"/>
<path d="M308.242 294.322C308.242 294.322 306.699 297.731 306.441 298.161C306.183 298.591 303.517 301.43 303.517 302.376C303.517 303.322 305.839 303.666 308.935 303.58C312.031 303.494 313.149 303.15 313.837 302.032C314.525 300.913 315.987 299.795 315.987 299.795C315.987 299.795 316.601 296.839 315.993 294.49L308.242 294.322Z" fill="white" stroke="#323F4B" stroke-width="0.5" stroke-miterlimit="10" stroke-linecap="round" stroke-linejoin="round"/>
<path d="M313.838 302.032C314.526 300.914 315.988 299.796 315.988 299.796C315.988 299.796 316.114 299.181 316.196 298.294C315.849 298.512 315.474 298.761 315.128 299.021C314.096 299.796 314.01 301.257 310.914 302.289C308.664 303.04 305.281 302.427 303.598 302.036C303.55 302.164 303.518 302.281 303.518 302.375C303.518 303.322 305.84 303.665 308.936 303.579C312.031 303.494 313.149 303.15 313.838 302.032Z" fill="white" stroke="#323F4B" stroke-width="0.5" stroke-miterlimit="10" stroke-linecap="round" stroke-linejoin="round"/>
<path d="M306.894 218.325L307.567 258.766L308.41 288.929C308.41 288.929 307.23 290.277 307.567 291.625C307.904 292.973 308.242 294.321 308.242 294.321L315.993 294.489C315.993 294.489 316.33 289.94 316.667 288.255C317.004 286.57 315.993 283.199 316.161 281.683C316.33 280.167 318.729 259.175 318.729 259.175L323.576 230.625L329.605 263.373L332.844 287.412C332.844 287.412 331.664 288.591 331.664 289.097C331.664 289.602 333.181 292.804 333.181 292.804C333.181 292.804 336.888 292.636 338.068 292.636C339.247 292.636 341.943 292.804 341.943 292.804C341.943 292.804 341.438 288.255 341.438 287.243C341.438 286.233 340.427 283.705 340.427 283.705C340.427 283.705 339.528 263.105 339.528 261.083C339.528 259.061 339.078 234.332 339.078 231.805C339.078 229.277 338.068 216.807 338.068 216.807L306.894 218.325Z" fill="#323F4B" stroke="#323F4B" stroke-width="0.5" stroke-miterlimit="10" stroke-linecap="round" stroke-linejoin="round"/>
<path d="M315.907 163.049L315.365 170.137C315.365 170.137 311.035 170.762 309.048 171.542C307.061 172.323 298.971 176.864 298.971 176.864L297.756 187.875L299.317 187.777L306.351 185.024C306.351 185.024 306.676 205.227 306.987 209.573C307.297 213.918 306.553 219.974 306.553 219.974C306.553 219.974 308.227 221.038 318.366 221.659C328.505 222.279 331.609 221.452 334.609 220.417C337.609 219.383 338.337 218.53 338.337 218.53C338.337 218.53 337.713 210.692 337.299 206.347C336.885 202.002 335.333 190.621 335.333 190.621C335.333 190.621 339.058 198.381 339.472 199.208C339.886 200.035 342.058 200.967 343.093 200.243C344.127 199.518 344.438 194.863 344.024 192.793C343.61 190.724 341.334 182.758 340.093 179.24C338.851 175.722 340.093 174.688 334.816 172.619C329.54 170.55 325.615 171.019 325.505 170.136C325.298 168.48 325.195 163.514 325.195 163.514L315.907 163.049Z" fill="#FC6814" stroke="#323F4B" stroke-width="0.5" stroke-miterlimit="10" stroke-linecap="round" stroke-linejoin="round"/>
<path d="M322.768 218.054C323.246 218.091 323.736 218.123 324.236 218.153" stroke="#323F4B" stroke-width="0.5" stroke-miterlimit="10" stroke-linecap="round" stroke-linejoin="round"/>
<path d="M308.534 215.369C308.534 215.369 313.131 217.154 321.374 217.934" stroke="#323F4B" stroke-width="0.5" stroke-miterlimit="10" stroke-linecap="round" stroke-linejoin="round"/>
<path d="M310.401 218.403C310.401 218.403 315.536 219.57 317.286 219.57" stroke="#323F4B" stroke-width="0.5" stroke-miterlimit="10" stroke-linecap="round" stroke-linejoin="round"/>
<path d="M309.215 178.919C309.215 178.919 308.697 181.249 307.791 184.357" stroke="#323F4B" stroke-width="0.5" stroke-miterlimit="10" stroke-linecap="round" stroke-linejoin="round"/>
<path d="M309.605 182.156C309.605 182.156 308.698 185.004 308.051 187.335" stroke="#323F4B" stroke-width="0.5" stroke-miterlimit="10" stroke-linecap="round" stroke-linejoin="round"/>
<path d="M312.781 202.102C313.163 202.95 313.535 203.664 313.878 204.168" stroke="#323F4B" stroke-width="0.5" stroke-miterlimit="10" stroke-linecap="round" stroke-linejoin="round"/>
<path d="M308.31 189.018C308.31 189.018 310.43 196.522 312.406 201.236" stroke="#323F4B" stroke-width="0.5" stroke-miterlimit="10" stroke-linecap="round" stroke-linejoin="round"/>
<path d="M325.281 177.386C325.148 177.902 325.014 178.419 324.884 178.919" stroke="#323F4B" stroke-width="0.5" stroke-miterlimit="10" stroke-linecap="round" stroke-linejoin="round"/>
<path d="M326.567 172.314C326.567 172.314 326.107 174.152 325.562 176.286" stroke="#323F4B" stroke-width="0.5" stroke-miterlimit="10" stroke-linecap="round" stroke-linejoin="round"/>
<path d="M315.561 171.408C315.561 171.408 316.985 174.646 318.021 175.94" stroke="#323F4B" stroke-width="0.5" stroke-miterlimit="10" stroke-linecap="round" stroke-linejoin="round"/>
<path d="M300.723 175.891C299.68 176.468 298.972 176.865 298.972 176.865L297.757 187.876L299.318 187.779L303.758 186.041C303.926 179.801 301.604 176.798 300.723 175.891Z" stroke="#323F4B" stroke-width="0.5" stroke-miterlimit="10" stroke-linecap="round" stroke-linejoin="round"/>
<path d="M325.194 163.515L315.907 163.049L315.365 170.137C315.365 170.137 320.745 175.93 321.78 175.62C322.814 175.31 325.504 170.137 325.504 170.137C325.298 168.481 325.194 163.515 325.194 163.515Z" fill="white" stroke="#323F4B" stroke-width="0.5" stroke-miterlimit="10" stroke-linecap="round" stroke-linejoin="round"/>
<path d="M319.601 167.23L315.483 168.566L315.817 163.891L319.601 167.23Z" fill="#323F4B" stroke="#323F4B" stroke-width="0.5" stroke-miterlimit="10" stroke-linecap="round" stroke-linejoin="round"/>
<path d="M315.788 149.067C315.788 149.067 314.269 149.447 313.605 151.535C312.94 153.624 313.51 157.611 313.51 157.611C313.51 157.611 312.459 157.524 312.459 158.664C312.459 159.803 312.561 160.839 313.13 161.598C313.7 162.357 314.425 161.397 314.425 161.397C314.425 161.397 314.488 163.549 315.057 164.309C315.627 165.069 318.017 168.111 319.631 168.395C321.245 168.68 321.909 168.585 322.383 168.3C322.858 168.016 324.901 166.154 325.471 165.015C326.041 163.876 326.267 162.259 326.267 162.259C326.267 162.259 326.96 163.313 327.849 162.067C328.68 160.905 328.724 159.448 328.185 159.047C327.556 158.58 327.18 159.129 327.18 159.129C327.18 159.129 327.464 155.522 327.56 154.193C327.655 152.864 326.99 151.44 326.515 150.965C326.041 150.491 327.56 151.155 326.99 149.636C326.42 148.118 325.661 146.883 323.478 146.219C321.294 145.555 319.111 146.409 319.111 146.409C319.111 146.409 320.725 144.606 319.111 144.7C317.497 144.796 315.503 148.403 315.788 149.067Z" fill="white" stroke="#323F4B" stroke-width="0.5" stroke-miterlimit="10" stroke-linecap="round" stroke-linejoin="round"/>
<path d="M326.989 149.637C326.419 148.118 325.66 146.884 323.477 146.22C321.293 145.555 319.11 146.41 319.11 146.41C319.11 146.41 320.724 144.606 319.11 144.701C317.496 144.796 315.503 148.403 315.788 149.067C315.788 149.067 314.269 149.447 313.604 151.535C312.94 153.624 313.509 157.611 313.509 157.611C313.509 157.611 313.889 158.465 314.174 158.275C314.459 158.085 314.364 157.136 314.459 156.757C314.554 156.377 315.503 156.092 315.598 155.048C315.693 154.003 315.219 153.054 316.073 152.2C316.927 151.346 319.111 150.871 319.111 150.871C319.111 150.871 321.769 152.2 322.528 152.2C323.288 152.2 323.098 151.061 323.098 151.061C323.098 151.061 324.616 152.485 325.376 153.149C326.135 153.814 326.325 154.478 326.325 155.333C326.325 156.187 325.85 159.32 326.515 159.225C327.18 159.13 327.18 159.13 327.18 159.13C327.18 159.13 327.464 155.522 327.559 154.194C327.654 152.865 326.99 151.44 326.515 150.966C326.04 150.491 327.559 151.156 326.989 149.637Z" fill="#323F4B" stroke="#323F4B" stroke-miterlimit="10" stroke-linecap="round" stroke-linejoin="round"/>
<path d="M318.59 156.89C318.59 157.336 318.357 157.697 318.068 157.697C317.779 157.697 317.546 157.335 317.546 156.89C317.546 156.444 317.779 156.083 318.068 156.083C318.357 156.083 318.59 156.444 318.59 156.89Z" fill="#323F4B"/>
<path d="M323.15 158.224C323.438 158.224 323.672 157.863 323.672 157.417C323.672 156.972 323.438 156.611 323.15 156.611C322.862 156.611 322.628 156.972 322.628 157.417C322.628 157.863 322.862 158.224 323.15 158.224Z" fill="#323F4B"/>
<path d="M316.486 154.972C316.486 154.972 318.308 153.438 319.603 154.828" stroke="#323F4B" stroke-width="0.5" stroke-miterlimit="10" stroke-linecap="round" stroke-linejoin="round"/>
<path d="M322.479 155.116C322.479 155.116 324.205 153.917 325.115 155.739" stroke="#323F4B" stroke-width="0.5" stroke-miterlimit="10" stroke-linecap="round" stroke-linejoin="round"/>
<path d="M320.369 159.575C320.369 159.575 321.472 159.815 321.808 159.623C322.143 159.431 321.952 156.842 321.952 156.842" stroke="#323F4B" stroke-width="0.5" stroke-miterlimit="10" stroke-linecap="round" stroke-linejoin="round"/>
<path d="M317.973 161.541C317.973 161.541 320.658 162.692 323.582 161.637C323.582 161.637 322.959 163.602 321.185 163.842C320.037 163.997 318.356 162.739 317.973 161.541Z" stroke="#323F4B" stroke-width="0.5" stroke-miterlimit="10" stroke-linecap="round" stroke-linejoin="round"/>
<path d="M306.064 151.182C306.064 151.182 306.536 150.828 307.007 150.799C307.478 150.77 308.126 151.241 308.096 151.506C308.067 151.771 307.802 151.977 307.713 152.006C307.625 152.035 306.064 151.182 306.064 151.182Z" fill="white" stroke="#323F4B" stroke-width="0.5" stroke-miterlimit="10" stroke-linecap="round" stroke-linejoin="round"/>
<path d="M308.82 153.105C308.82 153.105 307.549 151.902 306.785 151.688C306.425 151.459 306.035 151.236 305.842 151.203C305.431 151.135 302.429 153.19 302.429 153.19C302.429 153.19 303.707 160.092 303.622 160.603C303.536 161.114 294.93 178.412 295.016 179.946C295.101 181.48 294.675 185.655 295.186 186.251C295.697 186.847 297.487 188.296 298.253 187.955C299.02 187.615 302.343 183.95 303.196 180.542C304.048 177.134 306.349 162.989 306.604 162.222C306.86 161.455 308.422 159.91 308.478 159.043C308.537 158.13 307.762 156.346 307.762 156.346C307.762 156.346 308.771 156.37 309.037 154.95C309.116 154.532 308.82 153.105 308.82 153.105Z" fill="white" stroke="#323F4B" stroke-width="0.5" stroke-miterlimit="10" stroke-linecap="round" stroke-linejoin="round"/>
<path d="M308.173 152.643C308.173 152.643 305.156 153.672 304.95 153.946" stroke="#323F4B" stroke-width="0.5" stroke-miterlimit="10" stroke-linecap="round" stroke-linejoin="round"/>
<path d="M307.214 151.958C307.214 151.958 304.277 153.272 304.003 153.478" stroke="#323F4B" stroke-width="0.5" stroke-miterlimit="10" stroke-linecap="round" stroke-linejoin="round"/>
<path d="M306.447 151.535L303.149 153.125" stroke="#323F4B" stroke-width="0.5" stroke-miterlimit="10" stroke-linecap="round" stroke-linejoin="round"/>
<path d="M307.763 156.346L307.548 155.135L308.154 154.953" stroke="#323F4B" stroke-width="0.5" stroke-miterlimit="10" stroke-linecap="round" stroke-linejoin="round"/>
<path d="M343.018 188.857C339.578 189.163 337.414 192.208 336.681 193.425C337.792 195.737 339.225 198.714 339.472 199.209C339.886 200.037 342.059 200.968 343.093 200.244C344.128 199.519 344.438 194.864 344.024 192.795C343.878 192.065 343.5 190.6 343.018 188.857Z" fill="white" stroke="#323F4B" stroke-width="0.5" stroke-miterlimit="10" stroke-linecap="round" stroke-linejoin="round"/>
<path d="M338.998 173.666L334.896 187.26L340.638 186.674L344.255 174.308L338.998 173.666Z" fill="#323F4B" stroke="#323F4B" stroke-miterlimit="10" stroke-linecap="round" stroke-linejoin="round"/>
<path d="M343.927 187.851C343.927 187.851 343.553 182.008 343.328 181.858C343.103 181.708 341.754 177.962 341.38 177.213C341.005 176.464 340.256 176.838 340.406 177.512C340.556 178.187 341.305 180.884 341.455 181.183C341.604 181.483 341.604 183.131 341.604 183.131C341.604 183.131 339.507 181.783 339.057 181.408C338.607 181.034 336.585 179.685 336.06 180.06C335.535 180.434 335.985 181.034 336.21 181.109C336.21 181.109 335.311 181.558 335.461 182.232C335.611 182.906 336.435 182.981 336.735 183.056C337.034 183.131 339.731 185.828 339.731 185.828C339.731 185.828 338.008 185.303 337.109 184.929C336.21 184.554 335.311 184.554 335.161 184.854C335.012 185.154 335.611 185.528 335.91 185.528C336.21 185.528 338.158 186.502 338.158 186.502C338.158 186.502 339.282 189.05 339.806 189.724C340.331 190.398 341.305 191.672 341.305 191.672C341.305 191.672 339.287 198.579 339.472 199.208C339.657 199.838 341.455 202.235 342.579 202.685C343.702 203.134 345.425 201.261 345.95 199.988C346.475 198.714 346.924 195.792 346.549 194.444C346.175 193.096 343.927 187.851 343.927 187.851Z" fill="white" stroke="#323F4B" stroke-width="0.5" stroke-miterlimit="10" stroke-linecap="round" stroke-linejoin="round"/>
<path d="M336.21 181.109C336.21 181.109 338.682 182.832 339.057 182.982C339.431 183.132 340.705 184.78 340.705 184.78" stroke="#323F4B" stroke-width="0.5" stroke-miterlimit="10" stroke-linecap="round" stroke-linejoin="round"/>
<path d="M271.893 302.962H199.036C191.142 302.962 184.743 296.563 184.743 288.67V121.26C184.743 113.366 191.143 106.967 199.036 106.967H271.893C279.787 106.967 286.186 113.366 286.186 121.26V288.67C286.186 296.564 279.787 302.962 271.893 302.962Z" fill="#323F4B" stroke="#323F4B" stroke-width="0.5" stroke-miterlimit="10" stroke-linecap="round" stroke-linejoin="round"/>
<path d="M270.113 109.718H255.74L254.968 112.532C254.519 114.171 253.029 115.307 251.329 115.307H219.601C217.902 115.307 216.412 114.171 215.962 112.532L215.19 109.718H200.817C193.282 109.718 187.173 115.826 187.173 123.361V286.332C187.173 293.867 193.282 299.976 200.817 299.976H270.113C277.648 299.976 283.757 293.867 283.757 286.332V123.361C283.757 115.826 277.649 109.718 270.113 109.718Z" fill="white"/>
<path d="M270.113 109.718H255.74L254.968 112.532C254.519 114.171 253.029 115.307 251.329 115.307H219.601C217.902 115.307 216.412 114.171 215.962 112.532L215.19 109.718H200.817C193.282 109.718 187.173 115.826 187.173 123.361V183.619C199.908 194.168 216.857 200.603 235.465 200.603C254.072 200.603 271.021 194.168 283.756 183.619V123.361C283.757 115.826 277.649 109.718 270.113 109.718Z" fill="#FC6814"/>
<path d="M268.77 286.091H202.158C198.424 286.091 195.396 283.064 195.396 279.329V130.057C195.396 126.323 198.424 123.296 202.158 123.296H268.771C272.505 123.296 275.532 126.323 275.532 130.057V279.329C275.532 283.064 272.505 286.091 268.77 286.091Z" fill="white" stroke="#323F4B" stroke-miterlimit="10"/>
<path d="M260.699 212.465H210.229C207.463 212.465 205.221 210.223 205.221 207.456C205.221 204.69 207.463 202.448 210.229 202.448H260.699C263.466 202.448 265.708 204.69 265.708 207.456C265.708 210.223 263.466 212.465 260.699 212.465Z" fill="#FC6814" stroke="#323F4B" stroke-miterlimit="10" stroke-linecap="round" stroke-linejoin="round"/>
<path d="M260.699 228.646H210.229C207.463 228.646 205.221 226.404 205.221 223.638C205.221 220.872 207.463 218.63 210.229 218.63H260.699C263.466 218.63 265.708 220.872 265.708 223.638C265.708 226.404 263.466 228.646 260.699 228.646Z" fill="white" stroke="#323F4B" stroke-miterlimit="10"/>
<path d="M237.881 155.165C243.469 153.833 246.921 148.223 245.589 142.634C244.257 137.045 238.647 133.594 233.058 134.926C227.469 136.257 224.018 141.868 225.35 147.456C226.681 153.045 232.292 156.496 237.881 155.165Z" fill="#FC6814"/>
<path d="M234.404 148.44C234.213 148.44 234.029 148.363 233.893 148.228L230.654 144.99C230.372 144.707 230.372 144.249 230.654 143.966C230.937 143.684 231.395 143.684 231.678 143.966L234.365 146.654L239.254 140.982C239.515 140.68 239.972 140.646 240.274 140.907C240.577 141.167 240.611 141.625 240.35 141.928L234.953 148.189C234.822 148.341 234.633 148.432 234.431 148.439C234.422 148.44 234.413 148.44 234.404 148.44Z" fill="white"/>
<path d="M222.147 242.781H246.65" stroke="#323F4B" stroke-miterlimit="10"/>
<path d="M211.795 248.648H257.003" stroke="#323F4B" stroke-miterlimit="10"/>
<path d="M211.795 256.24H257.003" stroke="#323F4B" stroke-miterlimit="10"/>
<path d="M216.546 173.507V167.623H218.864C219.309 167.623 219.688 167.709 220.001 167.88C220.317 168.048 220.558 168.282 220.724 168.583C220.892 168.883 220.976 169.229 220.976 169.621C220.976 170.011 220.892 170.354 220.724 170.652C220.555 170.949 220.31 171.182 219.989 171.351C219.671 171.517 219.285 171.599 218.832 171.599H217.355V170.604H218.631C218.87 170.604 219.068 170.562 219.223 170.478C219.381 170.394 219.498 170.278 219.575 170.131C219.654 169.983 219.693 169.813 219.693 169.621C219.693 169.424 219.654 169.253 219.575 169.108C219.498 168.96 219.381 168.846 219.223 168.764C219.065 168.683 218.866 168.642 218.627 168.642H217.786V173.507H216.546Z" fill="#323F4B"/>
<path d="M221.853 173.507H220.522L222.552 167.623H224.155L226.181 173.507H224.854L223.377 168.966H223.33L221.853 173.507ZM221.774 171.193H224.921V172.164H221.774V171.193Z" fill="#323F4B"/>
<path d="M225.675 167.623H227.069L228.412 170.158H228.467L229.81 167.623H231.204L229.059 171.43V173.507H227.824V171.43L225.675 167.623Z" fill="#323F4B"/>
<path d="M231.622 167.623H233.158L234.777 171.576H234.844L236.467 167.623H238.007V173.507H236.791V169.676H236.744L235.216 173.479H234.394L232.878 169.668H232.831V173.507H231.622V167.623Z" fill="#323F4B"/>
<path d="M238.769 173.507V167.623H242.734V168.65H240.009V170.032H242.529V171.039H240.009V172.48H242.742V173.507H238.769Z" fill="#323F4B"/>
<path d="M248.381 167.623V173.507H247.307L244.752 169.807H244.7V173.507H243.461V167.623H244.55L247.089 171.323H247.141V167.623H248.381Z" fill="#323F4B"/>
<path d="M248.914 168.65V167.623H253.747V168.65H251.946V173.507H250.718V168.65H248.914Z" fill="#323F4B"/>
<path d="M216.621 186.222C216.1 186.222 215.633 186.103 215.219 185.866C214.806 185.629 214.48 185.286 214.24 184.836C214.001 184.386 213.881 183.842 213.881 183.205C213.881 182.563 214.001 182.016 214.24 181.566C214.482 181.113 214.81 180.77 215.223 180.536C215.639 180.299 216.105 180.18 216.621 180.18C216.964 180.18 217.281 180.229 217.573 180.326C217.865 180.421 218.123 180.561 218.347 180.745C218.573 180.926 218.758 181.15 218.9 181.416C219.042 181.679 219.133 181.981 219.172 182.32H217.916C217.893 182.16 217.845 182.015 217.774 181.886C217.706 181.757 217.615 181.648 217.502 181.558C217.391 181.469 217.264 181.4 217.119 181.353C216.977 181.303 216.82 181.278 216.649 181.278C216.349 181.278 216.084 181.354 215.855 181.507C215.629 181.657 215.452 181.876 215.326 182.162C215.202 182.447 215.141 182.794 215.141 183.205C215.141 183.623 215.204 183.976 215.33 184.263C215.456 184.547 215.633 184.762 215.859 184.907C216.086 185.052 216.348 185.124 216.645 185.124C216.811 185.124 216.965 185.102 217.107 185.057C217.249 185.012 217.376 184.948 217.486 184.863C217.597 184.779 217.689 184.676 217.762 184.555C217.839 184.432 217.89 184.291 217.916 184.133H219.172C219.141 184.404 219.06 184.665 218.931 184.915C218.805 185.165 218.633 185.389 218.414 185.586C218.196 185.781 217.936 185.936 217.636 186.052C217.336 186.165 216.998 186.222 216.621 186.222Z" fill="#323F4B"/>
<path d="M222.458 186.222C221.936 186.222 221.468 186.103 221.052 185.866C220.636 185.629 220.307 185.286 220.065 184.836C219.822 184.386 219.701 183.842 219.701 183.205C219.701 182.563 219.822 182.016 220.065 181.566C220.307 181.113 220.636 180.77 221.052 180.536C221.468 180.299 221.936 180.18 222.458 180.18C222.979 180.18 223.447 180.299 223.863 180.536C224.279 180.77 224.607 181.113 224.847 181.566C225.089 182.016 225.21 182.563 225.21 183.205C225.21 183.845 225.089 184.39 224.847 184.84C224.607 185.29 224.279 185.633 223.863 185.87C223.447 186.105 222.979 186.222 222.458 186.222ZM222.458 185.124C222.76 185.124 223.024 185.05 223.247 184.903C223.471 184.755 223.643 184.54 223.765 184.255C223.888 183.968 223.95 183.618 223.95 183.205C223.95 182.789 223.888 182.438 223.765 182.151C223.643 181.864 223.471 181.646 223.247 181.499C223.024 181.352 222.76 181.278 222.458 181.278C222.157 181.278 221.896 181.352 221.672 181.499C221.448 181.646 221.273 181.864 221.147 182.151C221.023 182.438 220.961 182.789 220.961 183.205C220.961 183.618 221.023 183.968 221.147 184.255C221.273 184.54 221.448 184.755 221.672 184.903C221.896 185.05 222.157 185.124 222.458 185.124Z" fill="#323F4B"/>
<path d="M225.865 180.259H227.401L229.02 184.212H229.087L230.71 180.259H232.25V186.143H231.034V182.312H230.987L229.459 186.115H228.637L227.121 182.305H227.074V186.143H225.865V180.259Z" fill="#323F4B"/>
<path d="M233.013 186.143V180.259H235.33C235.775 180.259 236.154 180.345 236.468 180.516C236.784 180.684 237.024 180.919 237.19 181.219C237.359 181.519 237.443 181.865 237.443 182.257C237.443 182.647 237.359 182.99 237.19 183.288C237.022 183.585 236.777 183.818 236.456 183.987C236.137 184.153 235.752 184.236 235.299 184.236H233.822V183.24H235.097C235.337 183.24 235.534 183.198 235.69 183.114C235.848 183.03 235.965 182.914 236.041 182.767C236.12 182.619 236.16 182.449 236.16 182.257C236.16 182.06 236.12 181.889 236.041 181.744C235.965 181.596 235.848 181.482 235.69 181.4C235.532 181.319 235.333 181.278 235.094 181.278H234.252V186.143H233.013Z" fill="#323F4B"/>
<path d="M237.988 186.143V180.259H239.228V185.116H241.751V186.143H237.988Z" fill="#323F4B"/>
<path d="M242.316 186.143V180.259H246.28V181.286H243.556V182.668H246.075V183.675H243.556V185.116H246.288V186.143H242.316Z" fill="#323F4B"/>
<path d="M246.782 181.286V180.259H251.615V181.286H249.814V186.143H248.586V181.286H246.782Z" fill="#323F4B"/>
<path d="M252.148 186.143V180.259H256.113V181.286H253.388V182.668H255.907V183.675H253.388V185.116H256.121V186.143H252.148Z" fill="#323F4B"/>
</svg>
