<svg width="580" height="387" viewBox="0 0 580 387" fill="none" xmlns="http://www.w3.org/2000/svg">
<rect width="580" height="387" fill="#FEE9DD"/>
<path d="M385.477 105.777C370.548 71.7392 334.716 58.9244 306.443 81.7682C295.407 90.6854 288.515 104.875 274.997 110.566C262.317 115.905 246.247 114.329 232.531 117.222C203.326 123.379 164.021 146.625 167.022 182.375C168.338 198.048 178.913 215.458 184.133 230.119C190.142 246.995 193.752 268.099 209.617 278.187C236.848 295.501 269.692 281.346 294.247 267.379C307.439 259.876 314.713 255.261 328.925 257.833C342.088 260.215 353.936 268.633 366.796 258.669C376.45 251.189 377.245 236.022 385.351 227.12C394.483 217.089 403.745 216.362 408.488 201.283C414.241 182.992 405.766 171.561 400.033 155.215C394.329 138.955 392.51 121.813 385.477 105.777Z" fill="#FC6814"/>
<g opacity="0.7">
<path d="M385.477 105.777C370.548 71.7392 334.716 58.9244 306.443 81.7682C295.407 90.6854 288.515 104.875 274.997 110.566C262.317 115.905 246.247 114.329 232.531 117.222C203.326 123.379 164.021 146.625 167.022 182.375C168.338 198.048 178.913 215.458 184.133 230.119C190.142 246.995 193.752 268.099 209.617 278.187C236.848 295.501 269.692 281.346 294.247 267.379C307.439 259.876 314.713 255.261 328.925 257.833C342.088 260.215 353.936 268.633 366.796 258.669C376.45 251.189 377.245 236.022 385.351 227.12C394.483 217.089 403.745 216.362 408.488 201.283C414.241 182.992 405.766 171.561 400.033 155.215C394.329 138.955 392.51 121.813 385.477 105.777Z" fill="white"/>
</g>
<path d="M271.885 306.609C323.108 306.609 364.632 304.022 364.632 300.832C364.632 297.641 323.108 295.055 271.885 295.055C220.663 295.055 179.139 297.641 179.139 300.832C179.139 304.022 220.663 306.609 271.885 306.609Z" fill="#FC6814"/>
<path opacity="0.8" d="M271.885 306.609C323.108 306.609 364.632 304.022 364.632 300.832C364.632 297.641 323.108 295.055 271.885 295.055C220.663 295.055 179.139 297.641 179.139 300.832C179.139 304.022 220.663 306.609 271.885 306.609Z" fill="white"/>
<path d="M341.584 301.317H248.323C241.885 301.317 236.666 296.098 236.666 289.659V92.7752C236.666 86.3366 241.885 81.1172 248.323 81.1172H341.584C348.022 81.1172 353.242 86.3366 353.242 92.7752V289.66C353.242 296.098 348.022 301.317 341.584 301.317Z" fill="#323F4B"/>
<path d="M348.06 105.296H241.847V277.138H348.06V105.296Z" fill="white" stroke="#323F4B" stroke-width="1.3374" stroke-miterlimit="10"/>
<path d="M311.23 174.881C320.221 165.89 320.221 151.313 311.23 142.323C302.24 133.332 287.663 133.332 278.672 142.323C269.681 151.313 269.681 165.89 278.672 174.881C287.663 183.872 302.24 183.872 311.23 174.881Z" fill="#FC6814"/>
<path d="M325.176 266.329H264.732C264.161 266.329 263.699 265.866 263.699 265.296C263.699 264.725 264.161 264.262 264.732 264.262H325.176C325.747 264.262 326.209 264.725 326.209 265.296C326.209 265.866 325.747 266.329 325.176 266.329Z" fill="#FC6814"/>
<path d="M327.15 206.961H262.757C261.43 206.961 260.354 205.885 260.354 204.558V196.965C260.354 195.637 261.43 194.561 262.757 194.561H327.15C328.478 194.561 329.554 195.637 329.554 196.965V204.558C329.553 205.885 328.478 206.961 327.15 206.961Z" fill="#FC6814"/>
<path d="M327.15 230.161H262.757C261.43 230.161 260.354 229.085 260.354 227.757V220.164C260.354 218.837 261.43 217.761 262.757 217.761H327.15C328.478 217.761 329.554 218.837 329.554 220.164V227.757C329.553 229.085 328.478 230.161 327.15 230.161Z" fill="#FC6814"/>
<path d="M306.416 170.083L299.643 166.184V162.961C300.568 161.881 301.286 160.486 301.724 158.901C301.931 158.971 302.172 159.025 302.452 159.025C303.293 159.025 303.826 156.42 303.913 154.563C304.891 152.492 303.558 151.282 303.558 151.282C303.558 151.282 304.111 150.729 304.48 148.516C304.848 146.304 303.189 147.226 301.898 145.198C300.608 143.17 299.686 140.958 295.446 140.958C291.206 140.958 289.915 144.46 289.915 144.46C289.915 144.46 288.071 144.46 286.781 144.829C285.491 145.198 285.122 149.439 286.228 151.098C286.728 151.847 286.925 153.008 286.993 154.058C286.7 153.697 286.392 153.6 286.228 154.416C285.859 156.259 287.335 158.84 287.335 158.84L288.101 158.621C288.529 160.323 289.285 161.817 290.264 162.96V166.183L283.492 170.082C281.879 171.01 280.886 172.729 280.886 174.589V176.819C284.777 179.828 289.654 181.623 294.953 181.623C300.253 181.623 305.13 179.828 309.021 176.819V174.589C309.022 172.731 308.028 171.012 306.416 170.083Z" fill="#323F4B"/>
<path d="M269.121 227.077C268.965 227.077 268.826 227.019 268.704 226.903C268.581 226.786 268.52 226.646 268.52 226.485C268.52 226.377 268.55 226.276 268.61 226.18L269.687 224.447L267.586 224.518C267.401 224.518 267.255 224.463 267.15 224.353C267.045 224.242 266.993 224.108 266.993 223.953C266.993 223.803 267.045 223.672 267.15 223.558C267.255 223.444 267.4 223.387 267.586 223.387L269.66 223.468L268.592 221.744C268.532 221.642 268.502 221.538 268.502 221.43C268.502 221.269 268.563 221.129 268.686 221.012C268.809 220.896 268.947 220.837 269.103 220.837C269.307 220.837 269.468 220.942 269.588 221.152L270.612 223.001L271.626 221.161C271.764 220.94 271.938 220.829 272.147 220.829C272.303 220.829 272.438 220.889 272.551 221.008C272.664 221.128 272.722 221.269 272.722 221.431C272.722 221.526 272.695 221.625 272.641 221.726L271.554 223.468L273.665 223.387C273.85 223.387 273.993 223.443 274.095 223.553C274.197 223.664 274.248 223.797 274.248 223.953C274.248 224.108 274.197 224.242 274.095 224.353C273.993 224.464 273.85 224.518 273.665 224.518L271.545 224.447L272.596 226.161C272.656 226.263 272.685 226.368 272.685 226.475C272.685 226.637 272.624 226.778 272.501 226.897C272.378 227.017 272.242 227.077 272.093 227.077C271.889 227.077 271.73 226.969 271.617 226.754L270.611 224.949L269.615 226.754C269.49 226.97 269.325 227.077 269.121 227.077Z" fill="#323F4B"/>
<path d="M278.855 227.077C278.699 227.077 278.56 227.019 278.437 226.903C278.314 226.786 278.253 226.646 278.253 226.485C278.253 226.377 278.283 226.276 278.343 226.18L279.421 224.447L277.319 224.518C277.134 224.518 276.989 224.463 276.884 224.353C276.779 224.242 276.727 224.108 276.727 223.953C276.727 223.803 276.779 223.672 276.884 223.558C276.988 223.444 277.134 223.387 277.319 223.387L279.394 223.468L278.325 221.744C278.265 221.642 278.235 221.538 278.235 221.43C278.235 221.269 278.296 221.129 278.419 221.012C278.542 220.896 278.681 220.837 278.837 220.837C279.04 220.837 279.202 220.942 279.322 221.152L280.345 223.001L281.36 221.161C281.497 220.94 281.671 220.829 281.881 220.829C282.036 220.829 282.171 220.889 282.284 221.008C282.398 221.128 282.455 221.269 282.455 221.431C282.455 221.526 282.428 221.625 282.374 221.726L281.287 223.468L283.397 223.387C283.583 223.387 283.727 223.443 283.829 223.553C283.93 223.664 283.981 223.797 283.981 223.953C283.981 224.108 283.93 224.242 283.829 224.353C283.727 224.464 283.583 224.518 283.397 224.518L281.279 224.447L282.329 226.161C282.389 226.263 282.419 226.368 282.419 226.475C282.419 226.637 282.357 226.778 282.235 226.897C282.112 227.017 281.975 227.077 281.826 227.077C281.623 227.077 281.464 226.969 281.35 226.754L280.345 224.949L279.348 226.754C279.223 226.97 279.058 227.077 278.855 227.077Z" fill="#323F4B"/>
<path d="M288.587 227.077C288.432 227.077 288.293 227.019 288.17 226.903C288.047 226.786 287.986 226.646 287.986 226.485C287.986 226.377 288.016 226.276 288.075 226.18L289.153 224.447L287.052 224.518C286.866 224.518 286.721 224.463 286.616 224.353C286.511 224.242 286.459 224.108 286.459 223.953C286.459 223.803 286.511 223.672 286.616 223.558C286.721 223.444 286.866 223.387 287.052 223.387L289.126 223.468L288.057 221.744C287.997 221.642 287.968 221.538 287.968 221.43C287.968 221.269 288.03 221.129 288.152 221.012C288.275 220.896 288.414 220.837 288.57 220.837C288.773 220.837 288.935 220.942 289.055 221.152L290.078 223.001L291.093 221.161C291.231 220.94 291.404 220.829 291.614 220.829C291.769 220.829 291.903 220.889 292.017 221.008C292.131 221.128 292.188 221.269 292.188 221.431C292.188 221.526 292.161 221.625 292.107 221.726L291.02 223.468L293.13 223.387C293.316 223.387 293.46 223.443 293.562 223.553C293.663 223.664 293.714 223.797 293.714 223.953C293.714 224.108 293.663 224.242 293.562 224.353C293.46 224.464 293.316 224.518 293.13 224.518L291.012 224.447L292.062 226.161C292.122 226.263 292.152 226.368 292.152 226.475C292.152 226.637 292.09 226.778 291.968 226.897C291.845 227.017 291.708 227.077 291.559 227.077C291.355 227.077 291.197 226.969 291.083 226.754L290.077 224.949L289.08 226.754C288.956 226.97 288.791 227.077 288.587 227.077Z" fill="#323F4B"/>
<path d="M298.32 227.077C298.165 227.077 298.026 227.019 297.903 226.903C297.78 226.786 297.719 226.646 297.719 226.485C297.719 226.377 297.749 226.276 297.809 226.18L298.886 224.447L296.785 224.518C296.6 224.518 296.454 224.463 296.35 224.353C296.245 224.242 296.193 224.108 296.193 223.953C296.193 223.803 296.245 223.672 296.35 223.558C296.454 223.444 296.6 223.387 296.785 223.387L298.859 223.468L297.791 221.744C297.731 221.642 297.701 221.538 297.701 221.43C297.701 221.269 297.763 221.129 297.885 221.012C298.008 220.896 298.148 220.837 298.303 220.837C298.506 220.837 298.668 220.942 298.788 221.152L299.811 223.001L300.826 221.161C300.964 220.94 301.137 220.829 301.347 220.829C301.502 220.829 301.637 220.889 301.751 221.008C301.864 221.128 301.921 221.269 301.921 221.431C301.921 221.526 301.894 221.625 301.84 221.726L300.753 223.468L302.864 223.387C303.05 223.387 303.193 223.443 303.295 223.553C303.396 223.664 303.447 223.797 303.447 223.953C303.447 224.108 303.396 224.242 303.295 224.353C303.193 224.464 303.05 224.518 302.864 224.518L300.745 224.447L301.796 226.161C301.856 226.263 301.885 226.368 301.885 226.475C301.885 226.637 301.824 226.778 301.701 226.897C301.578 227.017 301.442 227.077 301.292 227.077C301.088 227.077 300.93 226.969 300.816 226.754L299.81 224.949L298.814 226.754C298.689 226.97 298.524 227.077 298.32 227.077Z" fill="#323F4B"/>
<path d="M308.053 227.077C307.898 227.077 307.759 227.019 307.637 226.903C307.514 226.786 307.452 226.646 307.452 226.485C307.452 226.377 307.482 226.276 307.542 226.18L308.619 224.447L306.518 224.518C306.332 224.518 306.187 224.463 306.082 224.353C305.977 224.242 305.925 224.108 305.925 223.953C305.925 223.803 305.977 223.672 306.082 223.558C306.187 223.444 306.332 223.387 306.518 223.387L308.592 223.468L307.524 221.744C307.464 221.642 307.434 221.538 307.434 221.43C307.434 221.269 307.496 221.129 307.619 221.012C307.741 220.896 307.881 220.837 308.036 220.837C308.239 220.837 308.401 220.942 308.521 221.152L309.544 223.001L310.559 221.161C310.697 220.94 310.87 220.829 311.08 220.829C311.235 220.829 311.37 220.889 311.484 221.008C311.598 221.128 311.654 221.269 311.654 221.431C311.654 221.526 311.627 221.625 311.573 221.726L310.487 223.468L312.597 223.387C312.783 223.387 312.926 223.443 313.028 223.553C313.129 223.664 313.18 223.797 313.18 223.953C313.18 224.108 313.129 224.242 313.028 224.353C312.926 224.464 312.783 224.518 312.597 224.518L310.478 224.447L311.529 226.161C311.589 226.263 311.618 226.368 311.618 226.475C311.618 226.637 311.556 226.778 311.434 226.897C311.311 227.017 311.175 227.077 311.025 227.077C310.821 227.077 310.663 226.969 310.549 226.754L309.543 224.949L308.547 226.754C308.422 226.97 308.257 227.077 308.053 227.077Z" fill="#323F4B"/>
<path d="M317.786 227.077C317.631 227.077 317.492 227.019 317.369 226.903C317.246 226.786 317.185 226.646 317.185 226.485C317.185 226.377 317.215 226.276 317.275 226.18L318.353 224.447L316.251 224.518C316.065 224.518 315.92 224.463 315.816 224.353C315.711 224.242 315.659 224.108 315.659 223.953C315.659 223.803 315.711 223.672 315.816 223.558C315.92 223.444 316.065 223.387 316.251 223.387L318.326 223.468L317.257 221.744C317.197 221.642 317.168 221.538 317.168 221.43C317.168 221.269 317.229 221.129 317.352 221.012C317.474 220.896 317.614 220.837 317.769 220.837C317.973 220.837 318.134 220.942 318.254 221.152L319.278 223.001L320.292 221.161C320.43 220.94 320.603 220.829 320.813 220.829C320.969 220.829 321.103 220.889 321.217 221.008C321.331 221.128 321.387 221.269 321.387 221.431C321.387 221.526 321.36 221.625 321.306 221.726L320.22 223.468L322.33 223.387C322.516 223.387 322.659 223.443 322.761 223.553C322.863 223.664 322.914 223.797 322.914 223.953C322.914 224.108 322.863 224.242 322.761 224.353C322.659 224.464 322.516 224.518 322.33 224.518L320.211 224.447L321.262 226.161C321.322 226.263 321.351 226.368 321.351 226.475C321.351 226.637 321.29 226.778 321.167 226.897C321.044 227.017 320.908 227.077 320.759 227.077C320.555 227.077 320.396 226.969 320.282 226.754L319.277 224.949L318.28 226.754C318.155 226.97 317.99 227.077 317.786 227.077Z" fill="#323F4B"/>
<path d="M348.06 105.522H241.847V112.179H348.06V105.522Z" fill="#FC6814"/>
<path d="M306.5 93.2689H283.407C282.538 93.2689 281.833 92.5639 281.833 91.6945C281.833 90.8251 282.538 90.1201 283.407 90.1201H306.5C307.369 90.1201 308.074 90.8251 308.074 91.6945C308.074 92.5639 307.369 93.2689 306.5 93.2689Z" fill="#FC6814" stroke="#323F4B" stroke-width="1.3374" stroke-miterlimit="10" stroke-linecap="round" stroke-linejoin="round"/>
<path d="M301.252 286.841C301.252 283.363 298.432 280.543 294.953 280.543C291.475 280.543 288.656 283.362 288.656 286.841C288.656 290.319 291.475 293.139 294.953 293.139C298.432 293.139 301.252 290.32 301.252 286.841Z" fill="#FC6814"/>
<path d="M298.146 283.649H291.762V290.033H298.146V283.649Z" fill="#FC6814" stroke="#323F4B" stroke-width="0.5" stroke-miterlimit="10" stroke-linecap="round" stroke-linejoin="round"/>
<path d="M370.985 214.404C370.985 214.404 362.621 193.155 370.071 190.627C377.824 187.996 377.479 202.013 377.182 208.865C376.548 223.486 374.935 226.202 373.729 222.634L370.985 214.404ZM368.475 230.985C370.774 233.967 371.418 230.874 367.27 216.84C365.326 210.263 361.099 196.894 354.621 201.901C348.396 206.711 363.207 224.092 363.207 224.092L368.475 230.985ZM364.033 243.163C366.224 245.11 366.268 242.652 361.062 232.523C358.623 227.776 353.454 218.167 349.227 222.934C345.165 227.514 359.007 238.656 359.007 238.656L364.033 243.163ZM359.251 257.649C361.442 259.596 361.486 257.138 356.28 247.009C353.841 242.262 348.672 232.654 344.445 237.42C340.383 242 354.225 253.142 354.225 253.142L359.251 257.649ZM373.115 228.162C369.606 229.53 372.394 231.017 387.028 230.98C393.887 230.962 407.905 230.664 404.921 223.039C402.054 215.713 381.211 225.043 381.211 225.043L373.115 228.162ZM369.124 237.908C365.413 238.552 367.85 240.563 382.2 243.436C388.926 244.782 402.723 247.276 401.314 239.211C399.96 231.461 377.679 236.461 377.679 236.461L369.124 237.908ZM364.65 249.822C361.497 250.281 363.511 252.038 375.579 254.799C381.235 256.093 392.845 258.522 391.84 251.668C390.875 245.083 371.917 248.796 371.917 248.796L364.65 249.822ZM361.26 260.843C358.174 261.634 360.363 263.167 372.656 264.632C378.418 265.318 390.22 266.501 388.494 259.792C386.835 253.347 368.378 259.052 368.378 259.052L361.26 260.843ZM379.345 216.191C377.52 220.218 381.284 219.609 393.991 208.518C399.947 203.32 411.883 192.433 402.43 187.014C393.348 181.807 383.59 206.938 383.59 206.938L379.345 216.191ZM361.731 275.167C359.825 276.279 361.693 276.712 370.42 274.973C374.511 274.158 382.835 272.358 380.008 268.809C377.293 265.399 366.135 272.62 366.135 272.62L361.731 275.167Z" fill="#FC6814"/>
<path opacity="0.3" d="M370.985 214.404C370.985 214.404 362.621 193.155 370.071 190.627C377.824 187.996 377.479 202.013 377.182 208.865C376.548 223.486 374.935 226.202 373.729 222.634L370.985 214.404ZM368.475 230.985C370.774 233.967 371.418 230.874 367.27 216.84C365.326 210.263 361.099 196.894 354.621 201.901C348.396 206.711 363.207 224.092 363.207 224.092L368.475 230.985ZM364.033 243.163C366.224 245.11 366.268 242.652 361.062 232.523C358.623 227.776 353.454 218.167 349.227 222.934C345.165 227.514 359.007 238.656 359.007 238.656L364.033 243.163ZM359.251 257.649C361.442 259.596 361.486 257.138 356.28 247.009C353.841 242.262 348.672 232.654 344.445 237.42C340.383 242 354.225 253.142 354.225 253.142L359.251 257.649ZM373.115 228.162C369.606 229.53 372.394 231.017 387.028 230.98C393.887 230.962 407.905 230.664 404.921 223.039C402.054 215.713 381.211 225.043 381.211 225.043L373.115 228.162ZM369.124 237.908C365.413 238.552 367.85 240.563 382.2 243.436C388.926 244.782 402.723 247.276 401.314 239.211C399.96 231.461 377.679 236.461 377.679 236.461L369.124 237.908ZM364.65 249.822C361.497 250.281 363.511 252.038 375.579 254.799C381.235 256.093 392.845 258.522 391.84 251.668C390.875 245.083 371.917 248.796 371.917 248.796L364.65 249.822ZM361.26 260.843C358.174 261.634 360.363 263.167 372.656 264.632C378.418 265.318 390.22 266.501 388.494 259.792C386.835 253.347 368.378 259.052 368.378 259.052L361.26 260.843ZM379.345 216.191C377.52 220.218 381.284 219.609 393.991 208.518C399.947 203.32 411.883 192.433 402.43 187.014C393.348 181.807 383.59 206.938 383.59 206.938L379.345 216.191ZM361.731 275.167C359.825 276.279 361.693 276.712 370.42 274.973C374.511 274.158 382.835 272.358 380.008 268.809C377.293 265.399 366.135 272.62 366.135 272.62L361.731 275.167Z" fill="white"/>
<path d="M374.688 224.293L373.232 200.035ZM370.079 232.298L360.86 211.436ZM393.851 226.233L371.777 229.387ZM365.301 243.543L353.34 228.174ZM367.378 238.836L383.853 239.667ZM363.502 250.604L376.1 251.85ZM360.456 258.079L354.226 248.665ZM359.764 261.402L374.577 261.541ZM356.762 289.194C356.969 289.18 357.125 289.002 357.112 288.794C356.169 274.644 361.641 251.476 370.42 232.456C376.031 220.299 398.031 196.405 398.252 196.166C398.393 196.014 398.384 195.776 398.231 195.635C398.08 195.495 397.842 195.503 397.7 195.656C397.478 195.897 375.399 219.877 369.738 232.141C360.772 251.568 355.397 274.355 356.362 288.845C356.376 289.043 356.541 289.195 356.736 289.195C356.745 289.195 356.753 289.195 356.762 289.194ZM374.71 224.667C374.918 224.655 375.075 224.477 375.063 224.27L373.607 200.012C373.594 199.804 373.409 199.639 373.21 199.659C373.002 199.672 372.845 199.849 372.857 200.056L374.313 224.314C374.325 224.514 374.49 224.668 374.687 224.668C374.694 224.668 374.702 224.668 374.71 224.667ZM370.23 232.641C370.42 232.557 370.506 232.336 370.422 232.146L361.204 211.284C361.12 211.094 360.898 211.008 360.709 211.093C360.519 211.177 360.434 211.398 360.518 211.588L369.735 232.45C369.797 232.591 369.935 232.674 370.079 232.674C370.13 232.674 370.181 232.664 370.23 232.641ZM371.83 229.759L393.905 226.605C394.11 226.575 394.253 226.386 394.224 226.18C394.194 225.975 394.004 225.835 393.798 225.861L371.723 229.015C371.518 229.045 371.375 229.235 371.405 229.441C371.432 229.627 371.592 229.763 371.776 229.763C371.793 229.762 371.811 229.762 371.83 229.759ZM365.532 243.84C365.696 243.712 365.725 243.477 365.598 243.312L353.637 227.943C353.508 227.781 353.274 227.751 353.109 227.878C352.946 228.006 352.917 228.241 353.044 228.405L365.005 243.774C365.079 243.869 365.19 243.919 365.301 243.919C365.382 243.919 365.463 243.893 365.532 243.84ZM384.228 239.686C384.239 239.479 384.079 239.302 383.871 239.292L367.397 238.461C367.188 238.441 367.013 238.61 367.003 238.818C366.992 239.025 367.152 239.201 367.359 239.211L383.834 240.042C383.841 240.043 383.847 240.043 383.853 240.043C384.052 240.042 384.218 239.887 384.228 239.686ZM376.474 251.887C376.494 251.68 376.343 251.497 376.137 251.476L363.539 250.23C363.338 250.211 363.149 250.36 363.128 250.567C363.108 250.773 363.259 250.957 363.465 250.978L376.063 252.223C376.076 252.225 376.088 252.225 376.101 252.225C376.291 252.225 376.455 252.081 376.474 251.887ZM360.663 258.393C360.836 258.279 360.884 258.045 360.77 257.872L354.539 248.458C354.425 248.286 354.192 248.238 354.018 248.352C353.846 248.467 353.798 248.7 353.912 248.873L360.143 258.287C360.215 258.396 360.335 258.455 360.456 258.455C360.528 258.456 360.6 258.436 360.663 258.393ZM374.953 261.544C374.955 261.337 374.789 261.167 374.581 261.165L359.767 261.026C359.766 261.026 359.765 261.026 359.763 261.026C359.558 261.026 359.39 261.192 359.388 261.398C359.386 261.606 359.552 261.775 359.76 261.777L374.573 261.916C374.574 261.916 374.576 261.916 374.577 261.916C374.783 261.916 374.951 261.751 374.953 261.544ZM355.079 283.695C355.104 283.626 357.634 276.667 365.228 275.006C365.43 274.962 365.559 274.762 365.514 274.559C365.471 274.356 365.267 274.23 365.067 274.273C357.054 276.027 354.396 283.374 354.371 283.447C354.302 283.643 354.405 283.857 354.601 283.926C354.642 283.94 354.684 283.947 354.725 283.947C354.879 283.947 355.025 283.85 355.079 283.695ZM356.762 289.194C356.969 289.18 357.125 289.002 357.112 288.794C356.169 274.644 361.641 251.476 370.42 232.456C376.031 220.299 398.031 196.405 398.252 196.166C398.393 196.014 398.384 195.776 398.231 195.635C398.08 195.495 397.842 195.503 397.7 195.656C397.478 195.897 375.399 219.877 369.738 232.141C360.772 251.568 355.397 274.355 356.362 288.845C356.376 289.043 356.541 289.195 356.736 289.195C356.745 289.195 356.753 289.195 356.762 289.194ZM374.71 224.667C374.918 224.655 375.075 224.477 375.063 224.27L373.607 200.012C373.594 199.804 373.409 199.639 373.21 199.659C373.002 199.672 372.845 199.849 372.857 200.056L374.313 224.314C374.325 224.514 374.49 224.668 374.687 224.668C374.694 224.668 374.702 224.668 374.71 224.667ZM370.23 232.641C370.42 232.557 370.506 232.336 370.422 232.146L361.204 211.284C361.12 211.094 360.898 211.008 360.709 211.093C360.519 211.177 360.434 211.398 360.518 211.588L369.735 232.45C369.797 232.591 369.935 232.674 370.079 232.674C370.13 232.674 370.181 232.664 370.23 232.641ZM371.83 229.759L393.905 226.605C394.11 226.575 394.253 226.386 394.224 226.18C394.194 225.975 394.004 225.835 393.798 225.861L371.723 229.015C371.518 229.045 371.375 229.235 371.405 229.441C371.432 229.627 371.592 229.763 371.776 229.763C371.793 229.762 371.811 229.762 371.83 229.759ZM365.532 243.84C365.696 243.712 365.725 243.477 365.598 243.312L353.637 227.943C353.508 227.781 353.274 227.751 353.109 227.878C352.946 228.006 352.917 228.241 353.044 228.405L365.005 243.774C365.079 243.869 365.19 243.919 365.301 243.919C365.382 243.919 365.463 243.893 365.532 243.84ZM384.228 239.686C384.239 239.479 384.079 239.302 383.871 239.292L367.397 238.461C367.188 238.441 367.013 238.61 367.003 238.818C366.992 239.025 367.152 239.201 367.359 239.211L383.834 240.042C383.841 240.043 383.847 240.043 383.853 240.043C384.052 240.042 384.218 239.887 384.228 239.686ZM376.474 251.887C376.494 251.68 376.343 251.497 376.137 251.476L363.539 250.23C363.338 250.211 363.149 250.36 363.128 250.567C363.108 250.773 363.259 250.957 363.465 250.978L376.063 252.223C376.076 252.225 376.088 252.225 376.101 252.225C376.291 252.225 376.455 252.081 376.474 251.887ZM360.663 258.393C360.836 258.279 360.884 258.045 360.77 257.872L354.539 248.458C354.425 248.286 354.192 248.238 354.018 248.352C353.846 248.467 353.798 248.7 353.912 248.873L360.143 258.287C360.215 258.396 360.335 258.455 360.456 258.455C360.528 258.456 360.6 258.436 360.663 258.393ZM374.953 261.544C374.955 261.337 374.789 261.167 374.581 261.165L359.767 261.026C359.766 261.026 359.765 261.026 359.763 261.026C359.558 261.026 359.39 261.192 359.388 261.398C359.386 261.606 359.552 261.775 359.76 261.777L374.573 261.916C374.574 261.916 374.576 261.916 374.577 261.916C374.783 261.916 374.951 261.751 374.953 261.544ZM355.079 283.695C355.104 283.626 357.634 276.667 365.228 275.006C365.43 274.962 365.559 274.762 365.514 274.559C365.471 274.356 365.267 274.23 365.067 274.273C357.054 276.027 354.396 283.374 354.371 283.447C354.302 283.643 354.405 283.857 354.601 283.926C354.642 283.94 354.684 283.947 354.725 283.947C354.879 283.947 355.025 283.85 355.079 283.695Z" fill="#FC6814"/>
<path opacity="0.2" d="M374.688 224.293L373.232 200.035ZM370.079 232.298L360.86 211.436ZM393.851 226.233L371.777 229.387ZM365.301 243.543L353.34 228.174ZM367.378 238.836L383.853 239.667ZM363.502 250.604L376.1 251.85ZM360.456 258.079L354.226 248.665ZM359.764 261.402L374.577 261.541ZM356.762 289.194C356.969 289.18 357.125 289.002 357.112 288.794C356.169 274.644 361.641 251.476 370.42 232.456C376.031 220.299 398.031 196.405 398.252 196.166C398.393 196.014 398.384 195.776 398.231 195.635C398.08 195.495 397.842 195.503 397.7 195.656C397.478 195.897 375.399 219.877 369.738 232.141C360.772 251.568 355.397 274.355 356.362 288.845C356.376 289.043 356.541 289.195 356.736 289.195C356.745 289.195 356.753 289.195 356.762 289.194ZM374.71 224.667C374.918 224.655 375.075 224.477 375.063 224.27L373.607 200.012C373.594 199.804 373.409 199.639 373.21 199.659C373.002 199.672 372.845 199.849 372.857 200.056L374.313 224.314C374.325 224.514 374.49 224.668 374.687 224.668C374.694 224.668 374.702 224.668 374.71 224.667ZM370.23 232.641C370.42 232.557 370.506 232.336 370.422 232.146L361.204 211.284C361.12 211.094 360.898 211.008 360.709 211.093C360.519 211.177 360.434 211.398 360.518 211.588L369.735 232.45C369.797 232.591 369.935 232.674 370.079 232.674C370.13 232.674 370.181 232.664 370.23 232.641ZM371.83 229.759L393.905 226.605C394.11 226.575 394.253 226.386 394.224 226.18C394.194 225.975 394.004 225.835 393.798 225.861L371.723 229.015C371.518 229.045 371.375 229.235 371.405 229.441C371.432 229.627 371.592 229.763 371.776 229.763C371.793 229.762 371.811 229.762 371.83 229.759ZM365.532 243.84C365.696 243.712 365.725 243.477 365.598 243.312L353.637 227.943C353.508 227.781 353.274 227.751 353.109 227.878C352.946 228.006 352.917 228.241 353.044 228.405L365.005 243.774C365.079 243.869 365.19 243.919 365.301 243.919C365.382 243.919 365.463 243.893 365.532 243.84ZM384.228 239.686C384.239 239.479 384.079 239.302 383.871 239.292L367.397 238.461C367.188 238.441 367.013 238.61 367.003 238.818C366.992 239.025 367.152 239.201 367.359 239.211L383.834 240.042C383.841 240.043 383.847 240.043 383.853 240.043C384.052 240.042 384.218 239.887 384.228 239.686ZM376.474 251.887C376.494 251.68 376.343 251.497 376.137 251.476L363.539 250.23C363.338 250.211 363.149 250.36 363.128 250.567C363.108 250.773 363.259 250.957 363.465 250.978L376.063 252.223C376.076 252.225 376.088 252.225 376.101 252.225C376.291 252.225 376.455 252.081 376.474 251.887ZM360.663 258.393C360.836 258.279 360.884 258.045 360.77 257.872L354.539 248.458C354.425 248.286 354.192 248.238 354.018 248.352C353.846 248.467 353.798 248.7 353.912 248.873L360.143 258.287C360.215 258.396 360.335 258.455 360.456 258.455C360.528 258.456 360.6 258.436 360.663 258.393ZM374.953 261.544C374.955 261.337 374.789 261.167 374.581 261.165L359.767 261.026C359.766 261.026 359.765 261.026 359.763 261.026C359.558 261.026 359.39 261.192 359.388 261.398C359.386 261.606 359.552 261.775 359.76 261.777L374.573 261.916C374.574 261.916 374.576 261.916 374.577 261.916C374.783 261.916 374.951 261.751 374.953 261.544ZM355.079 283.695C355.104 283.626 357.634 276.667 365.228 275.006C365.43 274.962 365.559 274.762 365.514 274.559C365.471 274.356 365.267 274.23 365.067 274.273C357.054 276.027 354.396 283.374 354.371 283.447C354.302 283.643 354.405 283.857 354.601 283.926C354.642 283.94 354.684 283.947 354.725 283.947C354.879 283.947 355.025 283.85 355.079 283.695ZM356.762 289.194C356.969 289.18 357.125 289.002 357.112 288.794C356.169 274.644 361.641 251.476 370.42 232.456C376.031 220.299 398.031 196.405 398.252 196.166C398.393 196.014 398.384 195.776 398.231 195.635C398.08 195.495 397.842 195.503 397.7 195.656C397.478 195.897 375.399 219.877 369.738 232.141C360.772 251.568 355.397 274.355 356.362 288.845C356.376 289.043 356.541 289.195 356.736 289.195C356.745 289.195 356.753 289.195 356.762 289.194ZM374.71 224.667C374.918 224.655 375.075 224.477 375.063 224.27L373.607 200.012C373.594 199.804 373.409 199.639 373.21 199.659C373.002 199.672 372.845 199.849 372.857 200.056L374.313 224.314C374.325 224.514 374.49 224.668 374.687 224.668C374.694 224.668 374.702 224.668 374.71 224.667ZM370.23 232.641C370.42 232.557 370.506 232.336 370.422 232.146L361.204 211.284C361.12 211.094 360.898 211.008 360.709 211.093C360.519 211.177 360.434 211.398 360.518 211.588L369.735 232.45C369.797 232.591 369.935 232.674 370.079 232.674C370.13 232.674 370.181 232.664 370.23 232.641ZM371.83 229.759L393.905 226.605C394.11 226.575 394.253 226.386 394.224 226.18C394.194 225.975 394.004 225.835 393.798 225.861L371.723 229.015C371.518 229.045 371.375 229.235 371.405 229.441C371.432 229.627 371.592 229.763 371.776 229.763C371.793 229.762 371.811 229.762 371.83 229.759ZM365.532 243.84C365.696 243.712 365.725 243.477 365.598 243.312L353.637 227.943C353.508 227.781 353.274 227.751 353.109 227.878C352.946 228.006 352.917 228.241 353.044 228.405L365.005 243.774C365.079 243.869 365.19 243.919 365.301 243.919C365.382 243.919 365.463 243.893 365.532 243.84ZM384.228 239.686C384.239 239.479 384.079 239.302 383.871 239.292L367.397 238.461C367.188 238.441 367.013 238.61 367.003 238.818C366.992 239.025 367.152 239.201 367.359 239.211L383.834 240.042C383.841 240.043 383.847 240.043 383.853 240.043C384.052 240.042 384.218 239.887 384.228 239.686ZM376.474 251.887C376.494 251.68 376.343 251.497 376.137 251.476L363.539 250.23C363.338 250.211 363.149 250.36 363.128 250.567C363.108 250.773 363.259 250.957 363.465 250.978L376.063 252.223C376.076 252.225 376.088 252.225 376.101 252.225C376.291 252.225 376.455 252.081 376.474 251.887ZM360.663 258.393C360.836 258.279 360.884 258.045 360.77 257.872L354.539 248.458C354.425 248.286 354.192 248.238 354.018 248.352C353.846 248.467 353.798 248.7 353.912 248.873L360.143 258.287C360.215 258.396 360.335 258.455 360.456 258.455C360.528 258.456 360.6 258.436 360.663 258.393ZM374.953 261.544C374.955 261.337 374.789 261.167 374.581 261.165L359.767 261.026C359.766 261.026 359.765 261.026 359.763 261.026C359.558 261.026 359.39 261.192 359.388 261.398C359.386 261.606 359.552 261.775 359.76 261.777L374.573 261.916C374.574 261.916 374.576 261.916 374.577 261.916C374.783 261.916 374.951 261.751 374.953 261.544ZM355.079 283.695C355.104 283.626 357.634 276.667 365.228 275.006C365.43 274.962 365.559 274.762 365.514 274.559C365.471 274.356 365.267 274.23 365.067 274.273C357.054 276.027 354.396 283.374 354.371 283.447C354.302 283.643 354.405 283.857 354.601 283.926C354.642 283.94 354.684 283.947 354.725 283.947C354.879 283.947 355.025 283.85 355.079 283.695Z" fill="black"/>
<path d="M366.535 278.619H349.55V282.133H351.03L354.098 301.317H361.987L365.055 282.133H366.535V278.619Z" fill="#FC6814"/>
<path opacity="0.3" d="M366.535 278.619H349.55V282.133H351.03L354.098 301.317H361.987L365.055 282.133H366.535V278.619Z" fill="white"/>
<path d="M213.608 172.298L193.851 165.849L192.094 161.203L188.076 161.078L180.793 159.697L181.672 161.203L190.838 167.858L193.098 168.988L213.767 179.779L213.608 172.298Z" fill="white" stroke="#323F4B" stroke-width="1.004" stroke-miterlimit="10"/>
<path d="M192.094 161.204L190.211 160.074L186.444 161.455L187.071 162.208L192.094 161.204Z" fill="white" stroke="#323F4B" stroke-width="1.004" stroke-miterlimit="10" stroke-linejoin="round"/>
<path d="M213.608 172.298L193.851 165.849L192.094 161.203L188.076 161.078L180.793 159.697L181.672 161.203L190.838 167.858L193.098 168.988L213.767 179.779L213.608 172.298Z" fill="white"/>
<mask id="mask0_298_104071" style="mask-type:luminance" maskUnits="userSpaceOnUse" x="180" y="159" width="34" height="21">
<path d="M213.608 172.298L193.851 165.849L192.094 161.203L188.076 161.078L180.793 159.697L181.672 161.203L190.838 167.858L193.098 168.988L213.767 179.779L213.608 172.298Z" fill="white"/>
</mask>
<g mask="url(#mask0_298_104071)">
<path opacity="0.5" d="M213.608 172.298L193.851 165.849L192.094 161.203L188.076 161.078L180.793 159.697L181.672 161.203L190.838 167.858L193.098 168.988L213.767 179.779L213.608 172.298Z" fill="#FC6814" stroke="#323F4B" stroke-width="0.5" stroke-miterlimit="10"/>
</g>
<path d="M213.608 172.298L193.851 165.849L192.094 161.203L188.076 161.078L180.793 159.697L181.672 161.203L190.838 167.858L193.098 168.988L213.767 179.779L213.608 172.298Z" stroke="#323F4B" stroke-width="0.5" stroke-miterlimit="10"/>
<path d="M192.094 161.204L190.211 160.074L186.444 161.455L187.071 162.208L192.094 161.204Z" fill="white"/>
<mask id="mask1_298_104071" style="mask-type:luminance" maskUnits="userSpaceOnUse" x="186" y="160" width="7" height="3">
<path d="M192.094 161.204L190.211 160.074L186.444 161.455L187.071 162.208L192.094 161.204Z" fill="white"/>
</mask>
<g mask="url(#mask1_298_104071)">
<path opacity="0.5" d="M192.094 161.204L190.211 160.074L186.444 161.455L187.071 162.208L192.094 161.204Z" fill="#FC6814" stroke="#323F4B" stroke-width="0.5" stroke-miterlimit="10" stroke-linejoin="round"/>
</g>
<path d="M192.094 161.204L190.211 160.074L186.444 161.455L187.071 162.208L192.094 161.204Z" stroke="#323F4B" stroke-width="0.5" stroke-miterlimit="10" stroke-linejoin="round"/>
<path d="M217.803 130.433C217.803 130.433 217.497 133.134 218.259 134.869C219.02 136.605 223.253 142.476 223.253 142.476L215.351 148.811C215.351 148.811 212.078 142.192 211.452 141.143C210.825 140.093 210.081 135.477 212.113 132.184C214.146 128.892 217.076 128.02 217.803 130.433Z" fill="white"/>
<mask id="mask2_298_104071" style="mask-type:luminance" maskUnits="userSpaceOnUse" x="210" y="129" width="14" height="20">
<path d="M217.803 130.433C217.803 130.433 217.497 133.134 218.259 134.869C219.02 136.605 223.253 142.476 223.253 142.476L215.351 148.811C215.351 148.811 212.078 142.192 211.452 141.143C210.825 140.093 210.081 135.477 212.113 132.184C214.146 128.892 217.076 128.02 217.803 130.433Z" fill="white"/>
</mask>
<g mask="url(#mask2_298_104071)">
<path opacity="0.5" d="M213.744 139.113L217.173 146.215L215.351 148.811L211.907 142.664L213.744 139.113Z" fill="#FC6814"/>
</g>
<path d="M217.803 130.433C217.803 130.433 217.497 133.134 218.259 134.869C219.02 136.605 223.253 142.476 223.253 142.476L215.351 148.811C215.351 148.811 212.078 142.192 211.452 141.143C210.825 140.093 210.081 135.477 212.113 132.184C214.146 128.892 217.076 128.02 217.803 130.433Z" stroke="#323F4B" stroke-width="0.5" stroke-miterlimit="10"/>
<path d="M220.247 125.493C219.762 122.502 216.326 116.387 210.872 116.626C207.33 116.781 205.678 117.497 204.138 118.364C203.353 118.805 201.24 120.279 200.662 120.97C197.993 124.164 197.077 125.043 197.575 127.489C197.464 128.235 197.752 129.621 198.028 130.356C198.846 132.537 199.401 133.959 200.106 134.996C199.89 136.011 199.329 138.685 199.299 139.298C199.271 139.864 201.09 139.483 202.02 139.251C203.738 143.088 206.88 145.752 207.861 146.059C209.564 146.591 212.261 143.79 213.686 141.62C215.111 139.45 214.036 137.003 214.04 136.033C214.044 135.063 217.253 132.926 218.435 132.25C219.618 131.574 220.733 128.485 220.247 125.493Z" fill="white"/>
<mask id="mask3_298_104071" style="mask-type:luminance" maskUnits="userSpaceOnUse" x="197" y="116" width="24" height="31">
<path d="M220.247 125.493C219.762 122.502 216.326 116.387 210.872 116.626C207.33 116.781 205.678 117.497 204.138 118.364C203.353 118.805 201.24 120.279 200.662 120.97C197.993 124.164 197.077 125.043 197.575 127.489C197.464 128.235 197.752 129.621 198.028 130.356C198.846 132.537 199.401 133.959 200.106 134.996C199.89 136.011 199.329 138.685 199.299 139.298C199.271 139.864 201.09 139.483 202.02 139.251C203.738 143.088 206.88 145.752 207.861 146.059C209.564 146.591 212.261 143.79 213.686 141.62C215.111 139.45 214.036 137.003 214.04 136.033C214.044 135.063 217.253 132.926 218.435 132.25C219.618 131.574 220.733 128.485 220.247 125.493Z" fill="white"/>
</mask>
<g mask="url(#mask3_298_104071)">
<path opacity="0.5" d="M197.575 127.49C197.464 128.236 197.752 129.622 198.028 130.357C198.846 132.537 199.401 133.96 200.106 134.996C199.89 136.012 199.329 138.686 199.299 139.298C199.27 139.865 201.09 139.484 202.021 139.252C203.738 143.089 206.881 145.753 207.862 146.06C209.564 146.591 212.261 143.791 213.686 141.621C214.074 141.03 214.273 140.419 214.362 139.823C214.285 139.539 214.232 139.364 214.232 139.364C214.232 139.364 213.426 142.456 211.812 142.052C210.199 141.649 207.779 138.422 206.434 137.347C205.09 136.272 205.628 134.793 205.359 133.179C205.09 131.566 201.057 130.087 200.788 129.146C200.519 128.205 201.46 124.307 201.46 124.307C201.46 124.307 202.985 122.266 202.67 123.096C202.355 123.927 202.132 125.651 203.073 127.533C204.015 129.415 205.897 129.281 205.897 129.281L207.376 122.021L204.283 119.466L200.662 120.971C197.993 124.164 197.077 125.044 197.575 127.49Z" fill="#FC6814"/>
</g>
<path d="M220.247 125.493C219.762 122.502 216.326 116.387 210.872 116.626C207.33 116.781 205.678 117.497 204.138 118.364C203.353 118.805 201.24 120.279 200.662 120.97C197.993 124.164 197.077 125.043 197.575 127.489C197.464 128.235 197.752 129.621 198.028 130.356C198.846 132.537 199.401 133.959 200.106 134.996C199.89 136.011 199.329 138.685 199.299 139.298C199.271 139.864 201.09 139.483 202.02 139.251C203.738 143.088 206.88 145.752 207.861 146.059C209.564 146.591 212.261 143.79 213.686 141.62C215.111 139.45 214.036 137.003 214.04 136.033C214.044 135.063 217.253 132.926 218.435 132.25C219.618 131.574 220.733 128.485 220.247 125.493Z" stroke="#323F4B" stroke-width="0.5" stroke-miterlimit="10"/>
<path d="M200.85 133.182L201.422 134.899C201.422 134.899 202.71 135.328 204.284 133.611" stroke="#323F4B" stroke-width="0.5" stroke-miterlimit="10" stroke-linecap="round"/>
<path d="M205.286 141.195C205.286 141.195 206.717 141.052 207.289 139.048" stroke="#323F4B" stroke-width="0.5" stroke-miterlimit="10" stroke-linecap="round"/>
<path d="M199.848 131.751C199.848 131.751 200.277 130.463 202.852 130.463" stroke="#323F4B" stroke-width="0.5" stroke-miterlimit="10" stroke-linecap="round"/>
<path d="M213.044 114.237C210.563 113.824 207.396 113.802 207.396 113.802C207.396 113.802 201.748 110.544 196.318 114.019C190.887 117.495 193.494 123.577 193.494 125.098C193.494 126.618 191.756 126.618 192.842 128.574C193.928 130.528 197.575 129.452 197.575 129.452C197.575 129.452 197.584 127.162 199.538 125.642C201.493 124.122 203.052 123.795 203.704 124.229C203.704 124.229 203.269 127.487 203.921 128.791C203.921 128.791 206.093 129.877 206.744 129.877C207.396 129.877 206.319 130.798 208.482 131.614C209.416 131.967 210.191 131.691 210.859 131.332C211.175 130.012 211.876 128.026 213.17 128.486C215.075 129.163 216.806 133.846 214.234 135.438C217.33 136.001 221.081 130.528 221.298 125.532C221.516 120.536 216.258 114.771 213.044 114.237Z" fill="#323F4B"/>
<path d="M203.824 122.091C203.824 122.091 205.416 121.233 207.376 123.07C209.335 124.908 213.131 127.357 218.152 126.01" stroke="white" stroke-width="0.5" stroke-miterlimit="10" stroke-linecap="round" stroke-linejoin="round"/>
<path d="M203.579 120.621C203.579 120.621 204.681 118.906 206.519 118.906C208.355 118.906 212.642 121.478 216.07 121.478" stroke="white" stroke-width="0.5" stroke-miterlimit="10" stroke-linecap="round" stroke-linejoin="round"/>
<path d="M202.355 123.927C202.355 123.927 200.273 121.356 198.314 123.438C196.354 125.52 197.575 127.489 197.575 127.489" stroke="white" stroke-width="0.5" stroke-miterlimit="10" stroke-linecap="round" stroke-linejoin="round"/>
<path d="M194.027 125.642C194.027 125.642 195.865 124.173 196.109 121.479C196.354 118.785 200.028 116.458 202.355 118.662" stroke="white" stroke-width="0.5" stroke-miterlimit="10" stroke-linecap="round" stroke-linejoin="round"/>
<path d="M197.824 115.845C197.824 115.845 201.498 112.294 204.559 116.825" stroke="white" stroke-width="0.5" stroke-miterlimit="10" stroke-linecap="round" stroke-linejoin="round"/>
<path d="M227.758 290.486C227.758 290.486 230.02 294.004 229.769 296.266C229.517 298.528 229.517 298.528 229.517 298.528C229.517 298.528 221.224 300.79 219.465 300.79C217.706 300.79 208.41 299.917 208.41 299.917L208.012 298.325C207.952 298.082 208.072 297.83 208.298 297.724L216.596 293.855L219.213 290.99L227.758 290.486Z" fill="white" stroke="#323F4B" stroke-width="0.5" stroke-miterlimit="10"/>
<path d="M220.721 299.031C222.971 299.203 227.248 297.827 229.692 296.953C229.518 298.525 229.517 298.528 229.517 298.528C229.517 298.528 221.224 300.79 219.465 300.79C217.706 300.79 208.41 299.916 208.41 299.916L208.126 298.78C209.568 298.782 217.747 298.802 220.721 299.031Z" fill="#FC6814" stroke="#323F4B" stroke-width="0.5" stroke-miterlimit="10"/>
<path d="M216.596 293.854L204.518 299.106C204.518 299.106 203.484 301.692 204.518 302.21C205.553 302.727 228.05 302.21 228.05 302.21C228.05 302.21 229.607 298.123 227.148 295.382C224.687 292.642 216.596 293.854 216.596 293.854Z" fill="white" stroke="#323F4B" stroke-width="0.5" stroke-miterlimit="10"/>
<path d="M228.049 302.209C228.049 302.209 205.552 302.727 204.518 302.209C204.02 301.96 204.003 301.232 204.117 300.543H228.444C228.305 301.529 228.049 302.209 228.049 302.209Z" fill="#FC6814" stroke="#323F4B" stroke-width="0.5" stroke-miterlimit="10"/>
<path d="M210.886 202.524C210.886 202.524 207.727 216.51 206.533 225.257C205.338 234.004 204.637 251.532 204.888 253.543C205.14 255.553 217.705 289.23 217.705 289.23L218.962 292.245L227.758 290.486C227.758 290.486 223.737 277.669 222.229 270.632C220.721 263.595 217.454 252.035 217.454 250.024C217.454 248.014 225.279 209.627 225.814 207.102C226.35 204.578 228.903 200.715 228.903 200.715L212.061 200.372L210.886 202.524Z" fill="#FC6814" stroke="#323F4B" stroke-width="0.5" stroke-miterlimit="10"/>
<path d="M210.886 202.524C210.886 202.524 209.038 215.298 209.797 224.182C210.557 233.066 212.212 251.968 212.212 254.779C212.212 257.59 216.753 274.403 217.031 279.678C217.432 287.308 216.864 291.088 216.864 291.088L216.595 293.854C216.595 293.854 221.896 294.606 223.054 294.937C225 295.495 227.147 295.382 227.147 295.382C227.147 295.382 229.078 286.906 229.078 279.677C229.078 272.449 227.472 257.59 226.669 251.566C225.865 245.542 228.388 222.301 229.813 217.95C231.238 213.599 234.364 204.426 232.263 199.737C230.161 195.049 210.886 202.524 210.886 202.524Z" fill="#FC6814" stroke="#323F4B" stroke-width="0.5" stroke-miterlimit="10"/>
<path d="M234.574 197.39L234.38 203.102C234.38 203.102 230.958 203.779 226.351 204.579C222.548 205.239 212.996 204.405 209.778 204.095C209.177 204.036 208.73 203.512 208.766 202.908L209.08 197.748L234.574 197.39Z" fill="#323F4B"/>
<path d="M221.203 140.449C221.203 140.449 215.817 146.289 213.768 149.92C211.718 153.551 210.929 159.112 210.2 163.489C209.471 167.865 211.5 178.152 210.923 182.875L209.079 197.748C209.079 197.748 208.684 198.762 210.007 199.861C211.33 200.962 217.813 201.371 223.656 201.664C225.794 201.772 232.174 200.395 233.215 200.331C234.475 200.252 234.52 198.652 234.574 197.39C234.824 191.466 235.894 175.683 236.592 168.804C238.012 154.783 230.095 141.248 221.203 140.449Z" fill="white" stroke="#323F4B" stroke-width="0.5" stroke-miterlimit="10"/>
<path d="M235.904 176.779C236.145 173.665 236.384 170.842 236.591 168.803C236.653 168.195 236.69 167.587 236.717 166.981L222.371 169.399L210.052 165.18C209.986 167.275 210.224 170.022 210.482 172.814L222.572 176.199L235.904 176.779Z" fill="#FC6814"/>
<path d="M220.667 141.04C219.853 141.947 218.233 143.786 216.69 145.744L225.772 155L228.772 153.8L220.667 141.04Z" fill="#FC6814"/>
<path d="M221.202 140.449C221.202 140.449 215.817 146.289 213.767 149.92C213.189 150.945 212.713 152.127 212.309 153.39L223.17 140.843C222.521 140.647 221.865 140.508 221.202 140.449Z" fill="#323F4B"/>
<path d="M210.59 161.126L222.372 164.999L236.686 163.36C236.449 159.665 235.612 156.123 234.337 152.974L222.772 157.6L212.459 152.926C211.59 155.474 211.045 158.408 210.59 161.126Z" fill="#FC6814"/>
<path d="M230.879 191.465C224.902 192.472 218.768 191.971 213.034 190.007L210.16 189.023L209.266 196.242L212.54 197.159C218.767 198.902 225.276 199.405 231.697 198.637L234.343 198.32C234.476 198.035 234.559 197.722 234.574 197.389C234.641 195.786 234.77 193.457 234.934 190.781L230.879 191.465Z" fill="#FC6814"/>
<path d="M232.479 181.665C226.502 182.672 220.368 182.171 214.634 180.208L210.976 178.955C211.05 180.457 211.053 181.808 210.923 182.875L210.494 186.338L214.14 187.359C220.367 189.103 226.876 189.605 233.297 188.837L235.069 188.625C235.222 186.236 235.397 183.668 235.579 181.142L232.479 181.665Z" fill="#FC6814"/>
<path d="M176.188 156.292L187.79 165.621L188.29 164.999L176.688 155.67L176.188 156.292Z" fill="#323F4B"/>
<path d="M226.789 146.922C226.789 146.922 231.041 149.822 231.138 156.671C231.18 159.645 230.871 162.471 230.182 167.387C229.493 172.302 225.204 188.298 221.873 190.242C218.542 192.185 213.355 188.514 213.355 188.514L188.309 171.889L182.258 166.97L179.288 161.304L180.182 159.534L187.586 165.218L183.61 161.543L184.39 160.548L185.827 161.552L190.034 163.121L190.953 169.142L192.248 170.031L216.18 178.747C216.18 178.747 215.883 165.856 216.104 163.387C216.325 160.918 216.631 154.723 219.273 150.231" fill="white"/>
<mask id="mask4_298_104071" style="mask-type:luminance" maskUnits="userSpaceOnUse" x="179" y="146" width="53" height="45">
<path d="M226.789 146.922C226.789 146.922 231.041 149.822 231.138 156.671C231.18 159.645 230.871 162.471 230.182 167.387C229.493 172.302 225.204 188.298 221.873 190.242C218.542 192.185 213.355 188.514 213.355 188.514L188.309 171.889L182.258 166.97L179.288 161.304L180.182 159.534L187.586 165.218L183.61 161.543L184.39 160.548L185.827 161.552L190.034 163.121L190.953 169.142L192.248 170.031L216.18 178.747C216.18 178.747 215.883 165.856 216.104 163.387C216.325 160.918 216.631 154.723 219.273 150.231" fill="white"/>
</mask>
<g mask="url(#mask4_298_104071)">
<path opacity="0.5" d="M216.029 169.002C216.058 173.455 216.18 178.748 216.18 178.748L192.249 170.031L190.954 169.142L190.034 163.122L185.827 161.553L184.39 160.549L183.61 161.544L187.587 165.219L180.182 159.534L179.288 161.304L182.259 166.971L188.31 171.89L189.835 172.902L222.928 183.567L216.029 169.002Z" fill="#FC6814"/>
</g>
<path d="M226.789 146.922C226.789 146.922 231.041 149.822 231.138 156.671C231.18 159.645 230.871 162.471 230.182 167.387C229.493 172.302 225.204 188.298 221.873 190.242C218.542 192.185 213.355 188.514 213.355 188.514L188.309 171.889L182.258 166.97L179.288 161.304L180.182 159.534L187.586 165.218L183.61 161.543L184.39 160.548L185.827 161.552L190.034 163.121L190.953 169.142L192.248 170.031L216.18 178.747C216.18 178.747 215.883 165.856 216.104 163.387C216.325 160.918 216.631 154.723 219.273 150.231" stroke="#323F4B" stroke-width="0.5" stroke-miterlimit="10"/>
<path d="M216.181 178.747L225.329 185.339L227.698 181.142C227.698 181.142 229.332 179.851 229.577 178.882C229.822 177.914 229.509 176.328 229.754 175.36C229.999 174.391 231.222 173.472 231.341 171.123C231.459 168.775 231.362 166.808 231.362 166.808C231.362 166.808 233.341 158.667 233.126 155.125C232.912 151.583 229.499 145.33 226.759 145.192C224.02 145.054 220.467 145.464 217.707 149.641C214.946 153.819 215.511 166.011 215.08 166.774C214.649 167.538 215.245 171.295 215.245 171.295C215.245 171.295 214.433 171.843 214.384 172.822C214.334 173.8 215.39 176.208 215.39 176.208L216.181 178.747Z" fill="white" stroke="#323F4B" stroke-width="0.5" stroke-miterlimit="10"/>
<path d="M215.31 163.646C215.246 165.342 215.205 166.55 215.079 166.774C214.693 167.458 215.131 170.545 215.226 171.174C221.772 173.206 227.483 172.966 231.137 172.398C231.238 172.021 231.316 171.609 231.341 171.123C231.459 168.774 231.362 166.807 231.362 166.807C231.362 166.807 231.538 166.083 231.779 164.975C224.998 165.497 218.679 164.405 215.31 163.646Z" fill="#FC6814"/>
<path d="M217.328 150.312C216.469 152.035 215.993 154.623 215.714 157.247C222.598 159.85 228.742 159.844 232.822 159.328C233.05 157.739 233.192 156.214 233.126 155.125C233.069 154.182 232.783 153.046 232.346 151.886C225.947 152.094 220.208 150.994 217.328 150.312Z" fill="#FC6814"/>
<path d="M215.409 176.269L216.181 178.747L225.329 185.339L227.698 181.142C227.698 181.142 229.333 179.851 229.578 178.882C229.617 178.726 229.639 178.549 229.654 178.365C224.111 178.332 218.951 177.247 215.409 176.269Z" fill="#323F4B"/>
<path d="M222.027 294.857C222.027 294.857 222.227 289.66 223.227 282.065C224.226 274.47 221.828 263.676 221.428 261.877C221.028 260.079 221.628 256.081 221.228 254.682C220.829 253.282 218.881 247.293 220.031 240.346C221.18 233.399 222.104 215.034 222.104 215.034C222.104 215.034 219.219 212.687 218.372 209.643C217.524 206.598 218.174 205.63 218.174 205.63" stroke="#323F4B" stroke-width="0.5" stroke-miterlimit="10"/>
<path d="M223.363 205.89L222.253 212.038" stroke="#323F4B" stroke-width="0.5" stroke-miterlimit="10"/>
</svg>
