<svg width="580" height="387" viewBox="0 0 580 387" fill="none" xmlns="http://www.w3.org/2000/svg">
<rect width="580" height="387" fill="#FEE9DD"/>
<path d="M345.2 276.21C345.2 276.21 374 274.41 393.8 239.01C413.6 203.61 410 149.61 385.4 119.61C360.8 89.6097 322.4 79.4097 285.8 89.0097C267.967 93.6873 256.075 105.819 245.798 120.443C236.846 133.181 226.78 145.462 213.23 153.524C199.813 161.507 186.021 167.874 179.246 183.045C162.757 219.967 174.807 262.927 213.8 277.41C255.8 293.01 326 284.61 345.2 276.21Z" fill="#FC6814"/>
<path opacity="0.7" d="M345.2 276.21C345.2 276.21 374 274.41 393.8 239.01C413.6 203.61 410 149.61 385.4 119.61C360.8 89.6097 322.4 79.4097 285.8 89.0097C267.967 93.6873 256.075 105.819 245.798 120.443C236.846 133.181 226.78 145.462 213.23 153.524C199.813 161.507 186.021 167.874 179.246 183.045C162.757 219.967 174.807 262.927 213.8 277.41C255.8 293.01 326 284.61 345.2 276.21Z" fill="white"/>
<path d="M293.1 302.61C349.709 302.61 395.6 298.58 395.6 293.61C395.6 288.639 349.709 284.61 293.1 284.61C236.491 284.61 190.601 288.639 190.601 293.61C190.601 298.58 236.491 302.61 293.1 302.61Z" fill="#FC6814"/>
<path opacity="0.5" d="M293.1 302.61C349.709 302.61 395.6 298.58 395.6 293.61C395.6 288.639 349.709 284.61 293.1 284.61C236.491 284.61 190.601 288.639 190.601 293.61C190.601 298.58 236.491 302.61 293.1 302.61Z" fill="white"/>
<path d="M188.582 179.782V185.104" stroke="#323F4B" stroke-width="0.5" stroke-miterlimit="10" stroke-linecap="round" stroke-linejoin="round"/>
<path d="M191.243 182.443H185.921" stroke="#323F4B" stroke-width="0.5" stroke-miterlimit="10" stroke-linecap="round" stroke-linejoin="round"/>
<path d="M370.183 134.182V139.504" stroke="#323F4B" stroke-miterlimit="10" stroke-linecap="round" stroke-linejoin="round"/>
<path d="M372.843 136.843H367.521" stroke="#323F4B" stroke-miterlimit="10" stroke-linecap="round" stroke-linejoin="round"/>
<path d="M294.582 92.9822V98.3042" stroke="#323F4B" stroke-miterlimit="10" stroke-linecap="round" stroke-linejoin="round"/>
<path d="M297.243 95.6431H291.921" stroke="#323F4B" stroke-miterlimit="10" stroke-linecap="round" stroke-linejoin="round"/>
<path d="M206.982 239.382V244.704" stroke="#323F4B" stroke-miterlimit="10" stroke-linecap="round" stroke-linejoin="round"/>
<path d="M209.643 242.043H204.321" stroke="#323F4B" stroke-miterlimit="10" stroke-linecap="round" stroke-linejoin="round"/>
<path d="M367.8 115C367.8 117.43 365.83 119.4 363.4 119.4C360.97 119.4 359 117.43 359 115C359 112.57 360.97 110.6 363.4 110.6C365.829 110.6 367.8 112.57 367.8 115Z" stroke="#323F4B" stroke-miterlimit="10" stroke-linecap="round" stroke-linejoin="round"/>
<path d="M179.487 220.668C181.732 219.738 182.798 217.164 181.868 214.919C180.938 212.674 178.365 211.608 176.12 212.538C173.875 213.468 172.809 216.042 173.738 218.287C174.668 220.532 177.242 221.598 179.487 220.668Z" stroke="#323F4B" stroke-miterlimit="10" stroke-linecap="round" stroke-linejoin="round"/>
<path d="M387.8 160C387.8 160.552 387.353 161 386.8 161C386.248 161 385.8 160.552 385.8 160C385.8 159.448 386.247 159 386.8 159C387.353 159 387.8 159.448 387.8 160Z" stroke="#323F4B" stroke-miterlimit="10" stroke-linecap="round" stroke-linejoin="round"/>
<path d="M235.2 145.6C235.2 146.152 234.753 146.6 234.2 146.6C233.647 146.6 233.2 146.152 233.2 145.6C233.2 145.048 233.647 144.6 234.2 144.6C234.753 144.6 235.2 145.048 235.2 145.6Z" stroke="#323F4B" stroke-width="0.5" stroke-miterlimit="10" stroke-linecap="round" stroke-linejoin="round"/>
<path d="M403.355 204.603L403.375 204.575C403.375 204.575 403.362 204.574 403.341 204.571C403.333 204.552 403.327 204.54 403.327 204.54L403.307 204.568C402.472 204.484 393.838 203.744 385.958 207.838C389.012 203.898 391.065 198.798 390.419 192.336C388.517 173.32 370.571 162.432 369.189 161.62V161.569C369.189 161.569 369.172 161.578 369.145 161.594C369.118 161.578 369.101 161.569 369.101 161.569V161.62C367.72 162.432 349.773 173.32 347.872 192.336C347.457 196.485 348.156 200.072 349.517 203.152C339.412 197.111 327.623 198.127 326.538 198.237L326.513 198.202C326.513 198.202 326.506 198.217 326.495 198.241C326.47 198.244 326.453 198.246 326.453 198.246L326.479 198.28C325.946 199.511 319.201 215.725 327.304 229.507C334.55 241.83 349.748 238.573 353.874 237.415C357.344 241.059 363.665 249.348 366.46 263.5H362.519L364.417 290.298H373.275L375.173 263.5H370.538C373.267 251.587 377.816 242.653 381.852 236.549C385.985 237.577 397.172 239.317 402.685 229.941C409.26 218.757 403.787 205.602 403.355 204.603ZM368.875 204.498L359.515 191.497C359.432 191.383 359.458 191.224 359.573 191.142C359.687 191.06 359.846 191.086 359.928 191.199L368.891 203.647V190.478L368.875 190.498L359.515 177.497C359.432 177.383 359.458 177.224 359.573 177.142C359.687 177.06 359.846 177.085 359.928 177.2L368.891 189.648V170.476C368.891 170.336 369.005 170.222 369.145 170.222C369.286 170.222 369.4 170.336 369.4 170.476V189.01L379.12 176.682C379.208 176.571 379.367 176.553 379.478 176.64C379.588 176.727 379.607 176.887 379.52 176.997L369.4 189.832V203.009L379.121 190.681C379.208 190.57 379.368 190.552 379.478 190.639C379.589 190.726 379.608 190.886 379.521 190.996L369.401 203.832V214.972L379.121 202.644C379.209 202.534 379.369 202.515 379.479 202.602C379.589 202.689 379.609 202.849 379.522 202.96L369.401 215.795V216.037H368.572L359.516 203.46C359.434 203.346 359.46 203.187 359.575 203.104C359.689 203.023 359.848 203.049 359.93 203.163L368.893 215.611V204.478L368.875 204.498ZM354.004 236.235L353.081 234.973L339.91 231.3C339.797 231.268 339.731 231.151 339.762 231.038C339.794 230.925 339.911 230.859 340.024 230.89L352.675 234.417L347.176 226.893L334.004 223.221C333.891 223.189 333.825 223.072 333.856 222.958C333.887 222.846 334.005 222.78 334.118 222.811L346.769 226.338L340.264 217.439L327.093 213.766C326.98 213.735 326.914 213.618 326.945 213.504C326.977 213.391 327.094 213.325 327.208 213.356L339.859 216.883L330.709 204.366C330.639 204.271 330.66 204.138 330.755 204.069C330.85 203.999 330.983 204.02 331.052 204.115L340.517 217.063L340.425 204.231C340.424 204.114 340.519 204.018 340.636 204.017C340.754 204.016 340.85 204.111 340.85 204.228L340.947 217.63L340.927 217.624L347.428 226.519L347.336 213.687C347.335 213.57 347.43 213.474 347.547 213.472C347.665 213.471 347.761 213.566 347.761 213.684L347.858 227.085L347.837 227.08L353.333 234.599L353.241 221.767C353.24 221.65 353.335 221.554 353.452 221.552C353.57 221.551 353.666 221.646 353.666 221.763L353.763 235.165L353.743 235.159L354.53 236.237H354.004V236.235ZM355.501 236.235C357.425 233.314 362.966 223.716 359.656 214.484C362.983 216.691 366.152 218.041 367.866 218.686V260.346C364.828 247.582 359.099 239.924 355.608 236.235H355.501ZM369.902 257.781V218.877C371.305 218.377 374.388 217.156 377.754 215.051C372.47 223.522 378.389 233.307 379.949 235.615C376.468 240.916 372.661 248.251 369.902 257.781ZM402.856 217.168L392.168 220.149L386.89 227.37L397.155 224.508C397.247 224.482 397.342 224.536 397.368 224.628C397.394 224.719 397.34 224.815 397.248 224.841L386.561 227.821L382.098 233.926L392.363 231.064C392.455 231.039 392.551 231.092 392.576 231.184C392.602 231.276 392.548 231.371 392.456 231.397L381.769 234.377L381.208 235.145C381.107 235.086 381.005 235.027 380.911 234.966L381.232 234.527L381.215 234.532L381.293 223.658C381.294 223.563 381.372 223.486 381.467 223.486C381.563 223.488 381.64 223.565 381.639 223.66L381.564 234.073L386.024 227.972L386.007 227.977L386.085 217.103C386.086 217.008 386.164 216.931 386.259 216.931C386.354 216.933 386.431 217.011 386.431 217.105L386.356 227.518L391.631 220.301L391.614 220.306L391.692 209.432C391.693 209.337 391.771 209.26 391.866 209.26C391.961 209.261 392.038 209.339 392.038 209.434L391.963 219.846L399.643 209.34C399.699 209.263 399.807 209.246 399.884 209.302C399.961 209.358 399.977 209.466 399.922 209.543L392.498 219.698L402.763 216.836C402.855 216.811 402.95 216.864 402.976 216.956C403.001 217.048 402.948 217.143 402.856 217.168Z" fill="#323F4B"/>
<path d="M344.534 292.806H251.89C249.654 292.806 247.841 290.994 247.841 288.758V115.298C247.841 113.062 249.654 111.25 251.89 111.25H344.533C346.769 111.25 348.581 113.062 348.581 115.298V288.758C348.582 290.994 346.769 292.806 344.534 292.806Z" fill="#323F4B" stroke="#323F4B" stroke-miterlimit="10" stroke-linecap="round" stroke-linejoin="round"/>
<path d="M341.34 292.806H248.696C246.461 292.806 244.648 290.994 244.648 288.758V115.298C244.648 113.062 246.461 111.25 248.696 111.25H341.34C343.575 111.25 345.388 113.062 345.388 115.298V288.758C345.388 290.994 343.575 292.806 341.34 292.806Z" fill="white"/>
<mask id="mask0_298_104282" style="mask-type:luminance" maskUnits="userSpaceOnUse" x="244" y="111" width="102" height="182">
<path d="M341.34 292.806H248.696C246.461 292.806 244.648 290.994 244.648 288.758V115.298C244.648 113.062 246.461 111.25 248.696 111.25H341.34C343.575 111.25 345.388 113.062 345.388 115.298V288.758C345.388 290.994 343.575 292.806 341.34 292.806Z" fill="white"/>
</mask>
<g mask="url(#mask0_298_104282)">
<path d="M345.388 179.757L256.802 292.806H341.34C343.576 292.806 345.388 290.994 345.388 288.758V179.757Z" fill="#FC6814"/>
</g>
<mask id="mask1_298_104282" style="mask-type:luminance" maskUnits="userSpaceOnUse" x="244" y="111" width="102" height="182">
<path d="M341.34 292.806H248.696C246.461 292.806 244.648 290.994 244.648 288.758V115.298C244.648 113.062 246.461 111.25 248.696 111.25H341.34C343.575 111.25 345.388 113.062 345.388 115.298V288.758C345.388 290.994 343.575 292.806 341.34 292.806Z" fill="white"/>
</mask>
<g mask="url(#mask1_298_104282)">
<path opacity="0.5" d="M345.388 179.757L256.802 292.806H341.34C343.576 292.806 345.388 290.994 345.388 288.758V179.757Z" fill="white"/>
</g>
<path d="M341.34 292.806H248.696C246.461 292.806 244.648 290.994 244.648 288.758V115.298C244.648 113.062 246.461 111.25 248.696 111.25H341.34C343.575 111.25 345.388 113.062 345.388 115.298V288.758C345.388 290.994 343.575 292.806 341.34 292.806Z" stroke="#323F4B" stroke-miterlimit="10" stroke-linecap="round" stroke-linejoin="round"/>
<path d="M301.982 122.095H289.441C288.731 122.095 288.155 121.519 288.155 120.808C288.155 120.098 288.731 119.522 289.441 119.522H301.982C302.693 119.522 303.269 120.098 303.269 120.808C303.269 121.519 302.693 122.095 301.982 122.095Z" fill="#323F4B" stroke="#323F4B" stroke-miterlimit="10" stroke-linecap="round" stroke-linejoin="round"/>
<path d="M339.022 276.578H251.014V122.244H271.874L274.221 124.191C275.041 124.871 276.073 125.244 277.139 125.244H313.943C315.053 125.244 316.125 124.84 316.959 124.107L319.08 122.244H339.022V276.578H339.022Z" fill="white" stroke="#323F4B" stroke-miterlimit="10" stroke-linecap="round" stroke-linejoin="round"/>
<path d="M267.525 243.302H322.511" stroke="#323F4B" stroke-miterlimit="10" stroke-linecap="round" stroke-linejoin="round"/>
<path d="M267.525 250.537H322.511" stroke="#323F4B" stroke-miterlimit="10" stroke-linecap="round" stroke-linejoin="round"/>
<path d="M267.525 257.773H322.511" stroke="#323F4B" stroke-miterlimit="10" stroke-linecap="round" stroke-linejoin="round"/>
<path d="M272.62 176.122C269.587 180.511 267.811 185.834 267.811 191.572C267.811 206.599 279.992 218.78 295.018 218.78C310.045 218.78 322.226 206.599 322.226 191.572C322.226 176.546 310.045 164.365 295.018 164.365C293.319 164.365 291.657 164.521 290.044 164.818" stroke="#323F4B" stroke-miterlimit="10" stroke-linecap="round" stroke-linejoin="round"/>
<path d="M277.24 170.975C276.324 171.767 275.461 172.618 274.658 173.524" stroke="#323F4B" stroke-miterlimit="10" stroke-linecap="round" stroke-linejoin="round"/>
<path d="M316.248 200.62C321.243 188.891 315.784 175.332 304.054 170.337C292.324 165.341 278.765 170.801 273.77 182.531C268.775 194.26 274.234 207.819 285.964 212.814C297.694 217.81 311.252 212.35 316.248 200.62Z" fill="#FC6814"/>
<path d="M284.355 189.184L293.112 199.135L307.441 178.835" stroke="#323F4B" stroke-width="2" stroke-miterlimit="10" stroke-linecap="round" stroke-linejoin="round"/>
<path d="M316.959 124.107C316.125 124.84 315.053 125.244 313.943 125.244H277.139C276.073 125.244 275.041 124.871 274.221 124.191L271.874 122.244H251.014V138.033H339.022V122.244H319.08L316.959 124.107Z" fill="#FC6814" stroke="#323F4B" stroke-miterlimit="10" stroke-linecap="round" stroke-linejoin="round"/>
<path d="M297.829 281.334C297.829 280.23 296.934 279.334 295.829 279.334C294.724 279.334 293.829 280.23 293.829 281.334C293.829 282.439 294.724 283.334 295.829 283.334C296.934 283.334 297.829 282.439 297.829 281.334Z" fill="#323F4B" stroke="#323F4B" stroke-miterlimit="10" stroke-linecap="round" stroke-linejoin="round"/>
<path d="M192.927 192.943L182.422 286.903C182.422 286.903 174.721 293.602 175.395 296.31C176.069 299.019 184.964 294.727 186.19 292.471C187.415 290.215 188.037 286.619 188.037 286.619L210.158 215.967L227.166 291.761C227.166 291.761 234.438 297.698 238.448 297.495C242.458 297.291 241.038 295.719 238.747 292.818C236.455 289.918 231.278 288.261 231.278 288.261L228.727 190.577L192.927 192.943Z" fill="#323F4B" stroke="#323F4B" stroke-width="0.5" stroke-miterlimit="10" stroke-linecap="round" stroke-linejoin="round"/>
<path d="M228.095 188.923L192.803 190.715L193.047 195.527L228.339 193.736L228.095 188.923Z" fill="#323F4B" stroke="#323F4B" stroke-miterlimit="10" stroke-linecap="round" stroke-linejoin="round"/>
<path d="M214.708 191.975C214.769 193.169 213.246 194.216 211.306 194.314C209.368 194.413 207.746 193.525 207.686 192.332C207.625 191.138 209.148 190.091 211.087 189.993C213.026 189.894 214.647 190.782 214.708 191.975Z" fill="white"/>
<path d="M208.664 142.596L195.392 146.487L197.042 190.833L228.164 190.057L224.227 144.218L208.664 142.596Z" fill="white" stroke="#323F4B" stroke-miterlimit="10" stroke-linecap="round" stroke-linejoin="round"/>
<path d="M202.859 143.092L201.075 218.774L184.174 210.586L191.604 186.687L186.538 146.334L202.859 143.092Z" fill="#FC6814" stroke="#323F4B" stroke-width="0.5" stroke-miterlimit="10" stroke-linecap="round" stroke-linejoin="round"/>
<path d="M216.294 142.409L225.739 217.521L241.724 207.662L231.91 184.639L232.859 143.98L216.294 142.409Z" fill="#FC6814" stroke="#323F4B" stroke-width="0.5" stroke-miterlimit="10" stroke-linecap="round" stroke-linejoin="round"/>
<path d="M206.238 151.565L208.869 155.854L206.767 185.716L211.758 191.627L214.346 184.526L210.346 155.913L212.816 151.767L209.229 147.124L206.238 151.565Z" fill="#323F4B" stroke="#323F4B" stroke-width="0.5" stroke-miterlimit="10" stroke-linecap="round" stroke-linejoin="round"/>
<path d="M209.492 150.998L204.523 154.735L200.544 145.018L202.781 141.554L214.946 140.936L217.823 144.811L215.457 153.643L209.492 150.998Z" fill="white" stroke="#323F4B" stroke-width="0.5" stroke-miterlimit="10" stroke-linecap="round" stroke-linejoin="round"/>
<path d="M203.797 137.817L204.915 143.993L209.493 150.998L213.697 142.742L213.433 137.528L203.797 137.817Z" fill="white" stroke="#323F4B" stroke-width="0.5" stroke-miterlimit="10" stroke-linecap="round" stroke-linejoin="round"/>
<path d="M186.538 146.334L164 173.614L178.974 191.35L185.007 187.424L177.605 172.32L188.659 164.319L186.538 146.334Z" fill="#FC6814" stroke="#323F4B" stroke-width="0.5" stroke-miterlimit="10" stroke-linecap="round" stroke-linejoin="round"/>
<path d="M185.007 187.424L185.911 189.388L180.83 192.26L180.147 190.686L185.007 187.424Z" fill="white" stroke="#323F4B" stroke-width="0.5" stroke-miterlimit="10" stroke-linecap="round" stroke-linejoin="round"/>
<path d="M185.911 189.388L191.08 196.162L189.377 198.259L188.144 197.719L185.639 199.856C185.639 199.856 183.804 199.346 183.572 198.755C183.341 198.164 180.854 196.682 180.802 195.679C180.752 194.677 180.83 192.26 180.83 192.26L185.911 189.388Z" fill="white" stroke="#323F4B" stroke-width="0.5" stroke-miterlimit="10" stroke-linecap="round" stroke-linejoin="round"/>
<path d="M245.41 149.304C245.41 149.304 245.981 147.76 245.608 146.805C245.235 145.85 244.418 142.538 244.578 141.448C244.739 140.359 246.389 138.76 246.533 137.347C246.678 135.933 246.504 134.644 246.573 133.883C246.643 133.122 247.587 132.533 248.391 133.466C249.195 134.399 249.677 135.348 249.294 136.341C248.912 137.334 248.925 139.714 248.925 139.714C248.925 139.714 250.205 141.488 250.913 142.642C251.62 143.796 251.558 146.828 251.079 148.042C250.599 149.256 249.252 150.407 249.252 150.407L249.329 152.501L245.41 149.304Z" fill="white" stroke="#323F4B" stroke-width="0.5" stroke-miterlimit="10" stroke-linecap="round" stroke-linejoin="round"/>
<path d="M247.759 138.042C247.759 138.042 247.193 139.693 248.187 140.075C249.18 140.458 253.211 141.01 253.253 139.71C253.295 138.41 253.37 137.757 252.723 137.79C252.076 137.822 249.044 137.76 249.044 137.76C249.044 137.76 247.634 137.724 247.759 138.042Z" fill="white" stroke="#323F4B" stroke-width="0.5" stroke-miterlimit="10" stroke-linecap="round" stroke-linejoin="round"/>
<path d="M248.219 146.135C248.219 146.135 247.814 147.363 248.53 147.649C249.245 147.935 252.149 148.351 252.178 147.384C252.207 146.416 252.26 145.929 251.793 145.953C251.327 145.976 249.143 145.927 249.143 145.927C249.143 145.927 248.129 145.898 248.219 146.135Z" fill="white" stroke="#323F4B" stroke-width="0.5" stroke-miterlimit="10" stroke-linecap="round" stroke-linejoin="round"/>
<path d="M247.678 143.531C247.678 143.531 247.209 144.954 248.037 145.285C248.866 145.616 252.228 146.099 252.262 144.978C252.295 143.856 252.357 143.293 251.817 143.321C251.277 143.348 248.748 143.29 248.748 143.29C248.748 143.29 247.574 143.256 247.678 143.531Z" fill="white" stroke="#323F4B" stroke-width="0.5" stroke-miterlimit="10" stroke-linecap="round" stroke-linejoin="round"/>
<path d="M247.368 140.983C247.368 140.983 246.802 142.634 247.796 143.016C248.788 143.399 252.819 143.951 252.861 142.651C252.904 141.351 252.978 140.698 252.331 140.731C251.684 140.764 248.651 140.701 248.651 140.701C248.651 140.701 247.243 140.665 247.368 140.983Z" fill="white" stroke="#323F4B" stroke-width="0.5" stroke-miterlimit="10" stroke-linecap="round" stroke-linejoin="round"/>
<path d="M244.953 150.949L245.582 148.429L249.933 151.021L249.207 153.763L244.953 150.949Z" fill="white" stroke="#323F4B" stroke-width="0.5" stroke-miterlimit="10" stroke-linecap="round" stroke-linejoin="round"/>
<path d="M232.859 143.98L241.199 161.717L245.29 150.309L249.304 154.126L245.194 175.288C244.626 178.216 240.831 179.044 239.094 176.619L232.437 167.323L232.859 143.98Z" fill="#FC6814" stroke="#323F4B" stroke-width="0.5" stroke-miterlimit="10" stroke-linecap="round" stroke-linejoin="round"/>
<path d="M199.915 130.601C199.915 130.601 198.232 128.806 198.01 130.12C197.787 131.433 198.481 133.712 199.536 134.526C200.589 135.341 201.534 133.991 201.534 133.991L199.915 130.601Z" fill="white" stroke="#323F4B" stroke-width="0.5" stroke-miterlimit="10" stroke-linecap="round" stroke-linejoin="round"/>
<path d="M215.855 129.792C215.855 129.792 217.348 127.835 217.702 129.12C218.056 130.404 217.597 132.742 216.63 133.658C215.664 134.575 214.589 133.328 214.589 133.328L215.855 129.792Z" fill="white" stroke="#323F4B" stroke-width="0.5" stroke-miterlimit="10" stroke-linecap="round" stroke-linejoin="round"/>
<path d="M200.587 132.448L198.968 129.059C198.968 129.059 197.112 126.693 196.344 122.972C195.576 119.25 196.865 116.147 198.552 115.192C200.24 114.239 201.705 114.598 201.705 114.598C201.705 114.598 202.028 112.412 207.286 110.554C212.544 108.695 218.354 112.016 218.269 113.178C218.183 114.34 216.762 114.846 216.762 114.846C216.762 114.846 220.89 116.371 219.398 118.328C217.906 120.284 215.923 121.108 215.923 121.108C215.923 121.108 216.443 122.817 216.654 124.109C216.864 125.4 215.699 130.956 215.699 130.956L212.843 123.145L203.898 123.6C203.898 123.6 203.367 127.387 202.424 128.737C201.48 130.087 201.438 132.114 201.438 132.114C201.438 132.114 201.078 133.58 200.587 132.448Z" fill="#323F4B" stroke="#323F4B" stroke-miterlimit="10" stroke-linecap="round" stroke-linejoin="round"/>
<path d="M202.184 118.335C202.184 118.335 202.131 122.967 201.67 125.305C201.21 127.642 199.812 128.581 199.812 128.581C199.812 128.581 200.949 133.876 202.394 136.695C203.839 139.515 206.85 141.821 209.872 141.523C212.894 141.225 215.323 137.774 215.61 134.867C215.896 131.959 214.48 121.182 214.48 121.182C214.48 121.182 205.016 122.82 202.184 118.335Z" fill="white" stroke="#323F4B" stroke-width="0.5" stroke-miterlimit="10" stroke-linecap="round" stroke-linejoin="round"/>
<path d="M202.979 129.202C202.979 129.202 204.672 128.177 206.191 129.038" stroke="#323F4B" stroke-width="0.5" stroke-miterlimit="10" stroke-linecap="round" stroke-linejoin="round"/>
<path d="M202.857 126.793C202.857 126.793 203.044 125.174 205.72 125.037" stroke="#323F4B" stroke-width="0.5" stroke-miterlimit="10" stroke-linecap="round" stroke-linejoin="round"/>
<path d="M209.995 124.686C209.995 124.686 212.095 123.775 213.529 125.58" stroke="#323F4B" stroke-width="0.5" stroke-miterlimit="10" stroke-linecap="round" stroke-linejoin="round"/>
<path d="M209.054 127.283C209.054 127.283 209.484 130.482 209.505 130.883C209.525 131.285 210.87 131.351 210.51 132.174C210.149 132.997 208.985 133.861 208.015 133.239" stroke="#323F4B" stroke-width="0.5" stroke-miterlimit="10" stroke-linecap="round" stroke-linejoin="round"/>
<path d="M210.566 135.927C210.566 135.927 209.543 136.918 207.488 136.083" stroke="#323F4B" stroke-width="0.5" stroke-miterlimit="10" stroke-linecap="round" stroke-linejoin="round"/>
<path d="M212.594 128.311C212.623 128.902 212.349 129.397 211.979 129.415C211.61 129.434 211.286 128.969 211.256 128.378C211.226 127.787 211.501 127.292 211.87 127.274C212.24 127.255 212.564 127.72 212.594 128.311Z" fill="#323F4B"/>
</svg>
