<svg width="255" height="42" viewBox="0 0 255 42" fill="none" xmlns="http://www.w3.org/2000/svg">
<g clip-path="url(#clip0_255_47900)">
<path d="M76 26.6C76 27.4 76 28 75.7 28.6C75.5 29.2 75.3 29.7001 75 30.2001C74.7 30.7001 74.3 31 73.9 31.4C73.5 31.7 73 32.0001 72.6 32.2001C72.2 32.4001 71.7 32.6001 71.2 32.7001C70.7 32.7001 70.3 32.8 69.9 32.8H55.2V29H69.9C70.6 29 71.2 28.8 71.6 28.4C72 28 72.2 27.4 72.2 26.7C72.2 26 72.2 26 72 25.7C71.9 25.4 71.7 25.2 71.5 24.9C71.3 24.7 71.1 24.5 70.8 24.4C70.5 24.3 70.2 24.2 69.8 24.2H61C60.4 24.2 59.7 24.1 59 23.9C58.3 23.7 57.6 23.3 57 22.8C56.4 22.3 55.9 21.7 55.5 20.9C55.1 20.1 54.9 19.1 54.9 18C54.9 16.9 55.1 15.9 55.5 15.1C55.9 14.3 56.4 13.7 57 13.2C57.6 12.7 58.3 12.3 59 12.1C59.7 11.9 60.4 11.8 61 11.8H74V15.6H61C60.3 15.6 59.7 15.8 59.3 16.3C58.9 16.7 58.7 17.3 58.7 18C58.7 18.7 58.9 19.3 59.3 19.7C59.7 20.1 60.3 20.3 61 20.3H69.8C70.2 20.3 70.6 20.3 71.1 20.5C71.6 20.5 72 20.8 72.5 21C73 21.2 73.4 21.5 73.8 21.8C74.2 22.1 74.6 22.5 74.9 23C75.2 23.5 75.5 24 75.7 24.6C75.9 25.2 76 25.9 76 26.6Z" fill="#FC6814"/>
<path d="M96 30.9C96 31.2 96 31.4 95.9 31.7C95.9 31.9 95.7 32.1 95.5 32.3C95.3 32.5 95.1 32.6 94.9 32.7C94.7 32.7 94.4 32.8 94.2 32.8H85.6C85.1 32.8 84.6 32.8 84.1 32.6C83.6 32.5 83.1 32.3 82.5 32.1C82 31.9 81.5 31.6 81 31.2C80.5 30.8 80.1 30.4 79.7 29.9C79.3 29.4 79 28.8 78.8 28.1C78.6 27.4 78.5 26.6 78.5 25.8V17H82.3V25.8C82.3 26.3 82.3 26.7 82.5 27.1C82.7 27.5 82.9 27.8 83.2 28.1C83.5 28.4 83.8 28.6 84.2 28.8C84.6 28.9 85 29 85.5 29H92.2V17H96V30.9Z" fill="#FC6814"/>
<path d="M117.1 27.4C117.1 28.1 117.1 28.6 116.9 29.2C116.7 29.7 116.5 30.2 116.2 30.6C115.9 31 115.6 31.3 115.2 31.6C114.8 31.9 114.5 32.1 114.1 32.3C113.7 32.5 113.3 32.6 112.9 32.7C112.5 32.7 112.1 32.8 111.8 32.8H104.9V29H111.8C112.3 29 112.7 28.9 112.9 28.6C113.2 28.3 113.3 28 113.3 27.5V22.4C113.3 21.9 113.2 21.5 112.9 21.2C112.6 20.9 112.3 20.8 111.8 20.8H105C104.5 20.8 104.1 20.9 103.8 21.2C103.5 21.5 103.4 21.8 103.4 22.3V37.8H99.6V22.3C99.6 21.6 99.6 21.1 99.8 20.5C100 20 100.2 19.5 100.5 19.1C100.8 18.7 101.1 18.4 101.5 18.1C101.9 17.8 102.2 17.6 102.6 17.4C103 17.2 103.4 17.1 103.8 17C104.2 17 104.6 16.9 104.9 16.9H111.8C112.5 16.9 113 16.9 113.6 17.1C114.1 17.3 114.6 17.5 115 17.8C115.4 18.1 115.7 18.4 116 18.8C116.3 19.2 116.5 19.5 116.7 19.9C116.9 20.3 117 20.7 117.1 21.1C117.1 21.5 117.2 21.9 117.2 22.2V27.4H117.1Z" fill="#FC6814"/>
<path d="M137.8 27.4C137.8 28.1 137.8 28.6 137.6 29.2C137.4 29.7 137.2 30.2 136.9 30.6C136.6 31 136.3 31.3 135.9 31.6C135.5 31.9 135.2 32.1 134.8 32.3C134.4 32.5 134 32.6 133.6 32.7C133.2 32.7 132.8 32.8 132.5 32.8H125.6V29H132.5C133 29 133.4 28.9 133.6 28.6C133.9 28.3 134 28 134 27.5V22.4C134 21.9 133.9 21.5 133.6 21.2C133.3 20.9 133 20.8 132.5 20.8H125.7C125.2 20.8 124.8 20.9 124.5 21.2C124.2 21.5 124.1 21.8 124.1 22.3V37.8H120.3V22.3C120.3 21.6 120.3 21.1 120.5 20.5C120.7 20 120.9 19.5 121.2 19.1C121.5 18.7 121.8 18.4 122.2 18.1C122.6 17.8 122.9 17.6 123.3 17.4C123.7 17.2 124.1 17.1 124.5 17C124.9 17 125.3 16.9 125.6 16.9H132.5C133.2 16.9 133.7 16.9 134.3 17.1C134.8 17.3 135.3 17.5 135.7 17.8C136.1 18.1 136.4 18.4 136.7 18.8C137 19.2 137.2 19.5 137.4 19.9C137.6 20.3 137.7 20.7 137.8 21.1C137.8 21.5 137.9 21.9 137.9 22.2V27.4H137.8Z" fill="#FC6814"/>
<path d="M158.3 27.4C158.3 28.1 158.3 28.6001 158.1 29.2001C157.9 29.7001 157.7 30.2 157.4 30.6C157.1 31 156.8 31.3 156.4 31.6C156 31.9 155.7 32.1 155.3 32.3C154.9 32.5 154.5 32.6001 154.1 32.7001C153.7 32.7001 153.3 32.8 153 32.8H146.1C145.6 32.8 145 32.8 144.4 32.5C143.8 32.3 143.2 32 142.7 31.6C142.2 31.2 141.7 30.6 141.4 29.9C141 29.2 140.9 28.4 140.9 27.4V22.2001C140.9 21.2001 141.1 20.4001 141.4 19.7001C141.8 19.0001 142.2 18.5 142.7 18C143.2 17.6 143.8 17.3 144.4 17.1C145 16.9 145.6 16.8 146.1 16.8H153C154 16.8 154.8 17 155.5 17.3C156.2 17.7 156.7 18.1 157.2 18.6C157.6 19.1 157.9 19.7 158.1 20.3C158.3 20.9 158.4 21.5 158.4 22V27.2001L158.3 27.4ZM154.5 22.3C154.5 21.8 154.4 21.4 154.1 21.1C153.8 20.8 153.5 20.7001 153 20.7001H146.2C145.7 20.7001 145.3 20.8 145 21.1C144.7 21.4 144.6 21.7001 144.6 22.2001V27.4C144.6 27.9 144.7 28.3 145 28.5C145.3 28.8 145.6 28.9 146.2 28.9H153C153.5 28.9 153.9 28.8 154.2 28.5C154.5 28.2 154.6 27.9 154.6 27.4V22.3H154.5Z" fill="#FC6814"/>
<path d="M175.4 20.8H166.8C166.3 20.8 165.9 20.9 165.6 21.2C165.3 21.5 165.2 21.8 165.2 22.3V32.8H161.4V22.3C161.4 21.6 161.4 21.1 161.6 20.5C161.8 20 162 19.5 162.3 19.1C162.6 18.7 162.9 18.4 163.3 18.1C163.7 17.8 164 17.6 164.4 17.4C164.8 17.2 165.2 17.1 165.6 17C166 17 166.4 16.9 166.7 16.9H175.3V20.7L175.4 20.8Z" fill="#FC6814"/>
<path d="M192.3 20.8H185.6V32.8H181.7V20.8H176.7V17H181.7V11.8H185.6V17H192.3V20.8Z" fill="#FC6814"/>
<path d="M211.8 22.2C211.8 22.7 211.8 23.3 211.5 23.9C211.3 24.5 211 25.1 210.6 25.6C210.2 26.1 209.6 26.6 209 26.9C208.3 27.3 207.5 27.4 206.6 27.4H199.7V23.8H206.6C207.1 23.8 207.5 23.6 207.8 23.3C208.1 23 208.2 22.6 208.2 22.1C208.2 21.6 208 21.2 207.7 20.9C207.4 20.6 207 20.5 206.6 20.5H199.7C199.2 20.5 198.8 20.7 198.5 21C198.2 21.3 198.1 21.7 198.1 22.2V27.5C198.1 28 198.3 28.4 198.6 28.7C198.9 29 199.3 29.1 199.8 29.1H206.6V32.7H199.7C199.2 32.7 198.6 32.7 198 32.4C197.4 32.2 196.8 31.9 196.3 31.5C195.8 31.1 195.3 30.5 195 29.9C194.6 29.2 194.5 28.4 194.5 27.5V22.2C194.5 21.7 194.5 21.1 194.8 20.5C195 19.9 195.3 19.3 195.7 18.8C196.1 18.3 196.7 17.8 197.3 17.5C198 17.1 198.8 17 199.7 17H206.6C207.1 17 207.7 17 208.3 17.3C208.9 17.5 209.5 17.8 210 18.2C210.5 18.6 211 19.2 211.3 19.8C211.7 20.5 211.8 21.3 211.8 22.2Z" fill="#FC6814"/>
<path d="M228.2 20.8H219.6C219.1 20.8 218.7 20.9 218.4 21.2C218.1 21.5 218 21.8 218 22.3V32.8H214.2V22.3C214.2 21.6 214.2 21.1 214.4 20.5C214.6 20 214.8 19.5 215.1 19.1C215.4 18.7 215.7 18.4 216.1 18.1C216.5 17.8 216.8 17.6 217.2 17.4C217.6 17.2 218 17.1 218.4 17C218.8 17 219.2 16.9 219.5 16.9H228.1V20.7L228.2 20.8Z" fill="#FC6814"/>
<path d="M234.6 13.7H230.8V10.3H234.6V13.7ZM234.6 32.8H230.8V17H234.6V32.8Z" fill="#FC6814"/>
<path d="M254.6 27.5C254.6 28 254.6 28.6 254.3 29.2C254.1 29.8 253.8 30.4 253.4 30.9C253 31.4 252.4 31.9 251.8 32.2C251.1 32.6 250.3 32.7 249.4 32.7H242.5C242 32.7 241.4 32.7 240.8 32.4C240.2 32.2 239.6 31.9 239.1 31.5C238.6 31.1 238.1 30.5 237.8 29.9C237.4 29.2 237.3 28.4 237.3 27.5C237.3 26.6 237.3 26.4 237.6 25.8C237.8 25.2 238.1 24.6 238.5 24.1C238.9 23.6 239.5 23.1 240.1 22.8C240.8 22.4 241.6 22.3 242.5 22.3H249.4V25.9H242.5C242 25.9 241.6 26.1 241.3 26.4C241 26.7 240.9 27.1 240.9 27.6C240.9 28.1 241.1 28.5 241.4 28.8C241.7 29.1 242.1 29.2 242.6 29.2H249.4C249.9 29.2 250.3 29 250.6 28.7C250.9 28.4 251 28 251 27.5V22.2C251 21.7 250.8 21.3 250.5 21C250.2 20.7 249.8 20.6 249.3 20.6H240.9V17H249.3C249.8 17 250.4 17 251 17.3C251.6 17.5 252.2 17.8 252.7 18.2C253.2 18.6 253.7 19.2 254 19.8C254.4 20.5 254.5 21.3 254.5 22.2V27.5H254.6Z" fill="#FC6814"/>
<path d="M5.69999 9C6.99999 3.7 11.8 0 17.3 0H33.8C41.6 0 47.3 7.2 45.5 14.8L41.2 32.8C39.9 38.2 35.1 42 29.5 42H12.5C4.59999 42 -1.10001 34.6 0.899989 27L5.69999 9Z" fill="#FC6814"/>
<path d="M44 14C44.5 12 45.5 8.2 43.5 5C44.3 5.7 46 8.2 46 13C44.5 20 41.5 32.5 40.5 35C39 38 35.6 42 30 42H14.5C11 42 10.5 42 8.5 41.5C7 41 3.7 38.9 2.5 36.5C3.3 37.5 5.6 40 8 40H30C32.5 39.8 37.9 38.1 39.5 32.5L44 14Z" fill="#E25E13"/>
<path fill-rule="evenodd" clip-rule="evenodd" d="M16 20.3C16 20.3 15.9 20.3 15.8 20.1C15.8 20.1 15.7 19.9 15.7 19.8C15.7 19.8 15.7 19.6 15.7 19.5L15.9 18.8L13.8 17.4C13.8 17.4 13.7 17.4 13.6 17.2C13.6 17.2 13.5 17 13.5 16.9C13.5 16.8 13.5 16.7 13.5 16.6L15.2 10.3C15.2 10.2 15.3 10 15.4 9.90002C15.5 9.90002 15.7 9.80002 15.8 9.80002H18.3L18.9 7.40002C18.9 7.30002 19 7.10002 19.1 7.00002C19.2 7.00002 19.4 6.90002 19.5 6.90002H27.2C27.3 6.90002 27.4 6.90002 27.5 6.90002L29.6 8.30002C29.6 8.30002 29.7 8.30002 29.8 8.50002C29.8 8.50002 29.9 8.70002 29.9 8.80002C29.9 8.90002 29.9 9.00002 29.9 9.10002L29.7 9.80002L31.8 11.2C31.8 11.2 31.9 11.2 32 11.4C32 11.4 32.1 11.6 32.1 11.7C32.1 11.7 32.1 11.9 32.1 12L31.3 15.1C31.3 15.2 31.2 15.4 31.1 15.5C31 15.5 30.8 15.6 30.7 15.6H27.7C27.6 15.6 27.5 15.6 27.4 15.6L25.3 14.2C25.3 14.2 25.2 14.2 25.1 14C25.1 14 25 13.8 25 13.7C25 13.6 25 13.5 25 13.4L25.2 12.5H21.4L20.5 16H24.8C24.9 16 25 16 25.1 16L27.2 17.4C27.2 17.4 27.3 17.4 27.4 17.6C27.4 17.6 27.5 17.8 27.5 17.9C27.5 17.9 27.5 18.1 27.5 18.2L27.3 18.9L29.4 20.3C29.4 20.3 29.5 20.3 29.6 20.5C29.6 20.5 29.7 20.7 29.7 20.8C29.7 20.9 29.7 21 29.7 21.1L28 27.4C28 27.6 27.9 27.7 27.8 27.8C27.7 27.8 27.5 27.9 27.4 27.9H24.9L24.3 30.3C24.3 30.5 24.2 30.6 24.1 30.7C24 30.7 23.8 30.8 23.7 30.8H16C15.9 30.8 15.8 30.8 15.7 30.8L13.6 29.4C13.6 29.4 13.5 29.4 13.4 29.2C13.4 29.2 13.3 29 13.3 28.9C13.3 28.8 13.3 28.7 13.3 28.6L13.5 27.9L11.4 26.5C11.4 26.5 11.3 26.5 11.2 26.3C11.2 26.3 11.1 26.1 11.1 26C11.1 25.9 11.1 25.8 11.1 25.7L11.9 22.6C11.9 22.5 12 22.3 12.1 22.2C12.2 22.2 12.4 22.1 12.5 22.1H15.5C15.6 22.1 15.7 22.1 15.8 22.1L17.9 23.5C17.9 23.5 18 23.5 18.1 23.7C18.1 23.7 18.2 23.9 18.2 24C18.2 24 18.2 24.2 18.2 24.3L18 25.2H21.8L22.7 21.7H18.4C18.3 21.7 18.2 21.7 18.1 21.7L16 20.3Z" fill="#001F54"/>
<path fill-rule="evenodd" clip-rule="evenodd" d="M15.8 10.6H18.8L19.6 7.69995H27.3L26.5 10.6H29.5L28.7 13.7H25.7L26.5 10.6H18.8L17.1 16.9H24.8L24 19.8H16.3L17.1 16.9H14.1L15.8 10.6ZM12.5 22.9H15.5L14.7 26H22.4L24.1 19.7H27.1L25.4 26H22.4L21.6 28.9H13.9L14.7 26H11.7L12.5 22.9Z" fill="#FEE9DD"/>
</g>
<defs>
<clipPath id="clip0_255_47900">
<rect width="255" height="42" fill="white"/>
</clipPath>
</defs>
</svg>
